<?xml version="1.0" encoding="UTF-8"?>
<svg id="Layer_2" data-name="Layer 2" xmlns="http://www.w3.org/2000/svg" viewBox="0 0 539.11 1105.94">
  <defs>
    <style>
      .cls-1 {
        fill: #4f0909;
      }
    </style>
  </defs>
  <g id="Layer_11" data-name="Layer 11">
    <g>
      <g>
        <path class="cls-1" d="m139.09,1100.87c-2.31-18.55-5.2-37.2-6.26-55.87-1.06-18.64-.79-37.33-1.36-55.99-1.14-37.83-1.57-75.69-.41-113.53s4.91-75.54,9.78-113.25c1.23-9.48,2.43-18.97,3.48-28.48.98-8.84,1.07-17.88,2.69-26.62,1.43-7.72,4.18-15.13,4.71-23.01.59-8.68,2.1-17.14,2.91-25.79,1.9-20.16,1.62-40.68,2.68-60.91s6.88-39.98,7.88-60.28c0-.13-.65-.15-.66,0-1.25,17.88-6.21,35.16-8.4,52.9-2.25,18.23-3.27,37.11-3.16,55.47.05,8.56-.67,17.01-2.2,25.43s-2.34,16.73-5.03,24.87c-5.56,16.82-6.04,34.2-7.83,51.69-3.85,37.71-8,75.27-9.47,113.18-1.48,38.16-.98,76.33-.3,114.5.37,20.7.25,41.43.81,62.12s3.58,42.45,6.02,63.57c.11.97,4.21.75,4.12,0h0Z"/>
        <path class="cls-1" d="m37.85,1045.87c5.1-11.42,6.35-23.65,9.29-35.68,1.48-6.08,3.41-12.03,4.99-18.08,1.86-7.1,2.77-14.36,4.29-21.53,2.65-12.45,6.87-24.49,9.77-36.89,3.12-13.33,7.51-26.04,9.65-39.62.92-5.86,2.38-11.6,3.35-17.44,1.09-6.58.51-13.04.92-19.65.38-6.23,2.97-12.24,4.73-18.18s3.41-12.48,4.86-18.77-.29-12.6.75-18.93c.97-5.9,5.26-9.2,5.23-15.48-.03-5.83-.06-10.99,1.33-16.72,1.56-6.43,3.58-12.72,4.58-19.27.88-5.8.22-11.71,1.19-17.49s3.59-11.2,4.14-17.23c1.18-13,4.69-25.58,5.28-38.63.27-6.07,1.2-12.08,1.67-18.14s.04-12.72.64-19.04,1.41-12.68,1.3-19.38.93-13.65,1.42-20.43c1.91-26.9.26-53.75-.2-80.66-.24-13.71-.11-27.45,1.15-41.11,1.23-13.37,4.58-26.36,5.79-39.71.71-7.79,2.51-14.8,4.67-22.27s2.55-13.72,2.58-21.27,1.61-14.72,2.91-21.99,2.1-15.21,3.21-22.81,2.77-15.17,3.08-22.92.44-14.95,1.59-22.41,2.44-14.12,2.44-21.35c0-7.64,2.31-15.31,1.56-22.92-.02-.18-.8-.16-.8,0,.32,6.61-2.11,12.74-2.6,19.26s-1.09,13.11-2.5,19.72c-2.89,13.59-3.19,27.34-5.65,40.97s-3.66,26.58-6.36,39.75c-1.4,6.82-2.19,13.22-2.5,20.17s-2.4,12.73-4.14,19.22c-1.59,5.9-2.29,11.83-2.51,17.93-.27,7.36-1.18,14.1-2.49,21.33-2.38,13.12-3.34,26.46-3.61,39.78-.55,27.27,1.83,54.49,1.4,81.76-.1,6.51-.3,13.05-.87,19.54-.61,6.83-2.33,13.57-2.45,20.43-.12,6.43-.95,12.25-1.84,18.61s-.65,13.22-1.39,19.81c-1.4,12.53-1.15,25.1-3.11,37.56-1.02,6.45-1.65,12.7-1.94,19.21-.27,5.99-2.62,11.36-3.35,17.23-.69,5.52.23,11.09-.32,16.63-.67,6.86-2.91,13.45-4.49,20.13-1.37,5.78-1.26,10.87-1.22,16.72s-3.46,9.94-4.14,15.48c-.39,3.21.29,6.47.49,9.67s-.38,6.15-1.3,9.26c-1.85,6.25-3.56,12.51-5.36,18.77-1.63,5.68-4.03,11.42-4.5,17.33-.54,6.71.23,13-1.23,19.67-1.61,7.35-3.94,14.5-5.43,21.89s-2.65,14.4-4.83,21.46-3.78,14.51-5.48,21.84-4.07,14.06-5.95,21.15-2.98,13.82-4.24,20.8c-1.34,7.4-3.62,14.56-5.62,21.8-3.79,13.7-4.88,28.04-10.72,41.13-.11.25,2.57.78,2.92,0h0Z"/>
        <path class="cls-1" d="m147.8,230.07c.72-9.17,1.96-18.29,2.14-27.5,0-.03-.13-.03-.13,0-.18,9.21-1.42,18.33-2.14,27.5,0,.03.13.03.13,0h0Z"/>
        <path class="cls-1" d="m170.53,530.27c-.09-20.52-1.06-41.03-3.36-61.43-2.33-20.65-5.93-41.01-7.07-61.79s-1.32-40.23.59-60.18c.97-10.12.78-19.91.45-30.05s.76-20.01,2.22-29.99c1.38-9.39,3.2-18.73,4.09-28.18.65-6.86,1.03-15.99,5.58-21.56.39-.48-2.84-.86-3.46-.28-4.59,4.28-5.89,10.97-7.02,16.88-1.38,7.22-2.15,14.56-3.13,21.84-1.39,10.28-2.89,20.62-3.62,30.98s.49,20.06,0,30.08-1.98,20.34-2.32,30.58-.34,20.27-.05,30.4c.58,20.79,3.36,41.12,5.95,61.71,2.97,23.55,4.14,47.26,4.1,70.99,0,1.48,7.05,1.51,7.04,0h0Z"/>
        <path class="cls-1" d="m167.76,514.23c-1.55,6.44-1.6,12.92-2.14,19.48-.59,7.26-2,14.42-3.28,21.58-2.58,14.47-3.18,29.08-7.77,43.16-2.2,6.74-4.84,13.23-6.59,20.12s-3.02,13.66-4.44,20.5c-2.95,14.16-7.07,27.81-5.9,42.44.05.66,3,.66,3.05,0,1.07-14.06,5.67-27.62,7.76-41.54,1.03-6.85,1.9-13.72,3.18-20.52,1.35-7.17,3.65-13.97,5.52-21,3.67-13.79,4.21-28.23,6.95-42.22,1.47-7.48,3.12-14.93,3.9-22.52.68-6.58.85-13.05,2.53-19.48.1-.39-2.61-.73-2.79,0h0Z"/>
        <path class="cls-1" d="m142.77,670.05c1.02-14.6,4.32-28.87,6.03-43.38s2.6-28.37,4.86-42.53c4.64-29.04,7.15-58.31,10.78-87.48,1.76-14.17,3.81-28.3,6.59-42.32s6.97-28.91,10.92-43.27c1.89-6.86,3.78-13.74,5.26-20.7s1.97-13.74,3.09-20.59c2.24-13.65,8.4-26.18,11.8-39.54,3.79-14.88,6.2-30.1,10.64-44.81,1.92-6.37,4.44-12.5,6.65-18.76,2.07-5.86,4.15-12.06,2.53-18.26-.16-.6-2.78-.59-2.79,0-.22,11.59-7.16,21.21-10.84,31.82-4.53,13.06-7.05,26.71-10.1,40.17-1.42,6.25-2.9,12.51-4.82,18.62-2.12,6.75-4.97,13.24-7,20.02s-2.7,13.32-3.48,20.13c-.87,7.64-2.38,15.07-4.19,22.54-3.34,13.77-7.34,27.37-10.31,41.22-3.13,14.56-5.35,29.33-7.32,44.08-3.85,28.88-6.07,57.95-10.12,86.8-2.21,15.74-4.15,31.31-5.23,47.17s-4.97,32.59-5.88,49.07c-.03.57,2.88.67,2.92,0h0Z"/>
        <path class="cls-1" d="m159.62,415.69c3.44-22.49,8.26-44.72,13.46-66.86,2.57-10.96,5.16-21.92,8.14-32.77,2.55-9.32,7-18.45,8.03-28.11.11-1.04-4.79-1.07-5.25-.21-2.92,5.48-2.67,12-3.93,17.96-.13.63,3.53.89,3.85,0,2.11-5.77,2.59-11.94,5.23-17.54l-5.25-.21c-.5,9.42-5.32,18.25-8,27.18-3.34,11.13-6.12,22.41-8.87,33.7-5.39,22.13-10.42,44.36-14.06,66.86-.18,1.11,6.39,1.64,6.64,0h0Z"/>
        <path class="cls-1" d="m192.29,248.41c4.34-24.88,9.44-49.61,14.27-74.39,2.36-12.12,4.1-24.37,6.16-36.54s2.84-24.13,6.34-35.72c.05-.17-1.21-.34-1.33,0-3.89,11.24-5.21,23.17-7.68,34.76-2.66,12.47-5.43,24.95-7.65,37.5-4.39,24.82-9.12,49.58-13.56,74.39-.1.56,3.3.86,3.45,0h0Z"/>
        <path class="cls-1" d="m218.75,78.83c-4.46,27.82-4.82,56.11-7.26,84.14s-3.62,54.3-8.94,80.85c-.05.27,1.62.43,1.73,0,6.59-26.48,8.92-53.78,11.68-80.85,2.85-28.01,2.23-56.24,6.38-84.14.09-.61-3.45-.88-3.59,0h0Z"/>
        <path class="cls-1" d="m199.13,259.88c.06,0,.06-.03,0-.03s-.06.03,0,.03h0Z"/>
        <path class="cls-1" d="m199.58,278.2c1.76-16.06,6.84-31.31,12.57-46.33,5.24-13.74,9.33-28.83,18.43-40.63.32-.41-2.43-.78-2.95-.24-10.37,11.04-16.18,25.11-21.21,39.17-5.59,15.62-10.6,31.42-12.02,48.03-.08.97,5.05,1.21,5.18,0h0Z"/>
        <path class="cls-1" d="m207.92,230.27c17.24-32.1,31.29-65.69,47-98.53,7.3-15.25,14.47-30.25,20.06-46.24,2.83-8.08,5.45-16.23,8.08-24.37,1.27-3.93,2.72-7.86,3.7-11.87s.97-8.07,3.26-11.61c.2-.31-1.62-.53-1.92-.16-1.97,2.5-2.87,5.27-3.58,8.35-.93,4.01-2.22,7.85-3.54,11.76-2.75,8.17-5.48,16.35-8.38,24.47-6.08,17.08-13.8,33.09-21.81,49.32-16.12,32.7-30.43,66.31-47.62,98.48-.46.86,4.18,1.43,4.74.38h0Z"/>
        <path class="cls-1" d="m268.86,110.91c-3.6,11.85-8.47,23.27-11.92,35.17-3.19,10.98-5.65,22.27-13.16,31.26-.06.08.53.19.64.05,7.32-8.54,10.11-19.19,13.28-29.73,3.75-12.46,9.04-24.37,13.02-36.75.07-.22-1.71-.5-1.86,0h0Z"/>
        <path class="cls-1" d="m208.89,273.61c4.57-15.45,8.84-31.02,14.47-46.13,5.76-15.46,13.55-30.06,21.55-44.45,7.72-13.88,15.56-27.7,22.51-41.99,6.46-13.29,13.42-26.8,15.55-41.59.02-.11-.63-.16-.66,0-3.03,16.01-11.57,30.49-19.03,44.78s-16.05,27.66-23.52,41.81-13.81,27.1-19.05,41.44c-5.52,15.13-9.73,30.68-14.22,46.13-.09.31,2.21.62,2.39,0h0Z"/>
        <path class="cls-1" d="m295.49,58.23c.08,0,.08-.04,0-.04s-.08.04,0,.04h0Z"/>
        <path class="cls-1" d="m290.34,60.5c-2.99,7.13-6.72,13.94-9.49,21.16s-4.86,15.19-7.72,22.64c-3.02,7.88-6.98,15.36-10.55,23-1.27,2.71-2.67,5.38-3.65,8.22s-1.56,7.06-4.34,8.9l3.48.28c-1.72-5.09,1.37-10.21,3.43-14.73,2.4-5.28,4.26-10.79,6.2-16.26,2.38-6.71,4.72-13.45,7.58-19.97,2.63-5.99,5.57-11.85,7.36-18.16s2.34-13.19,3.58-19.78,3.44-13.15,5.45-19.65c1.87-6.06,4.16-11.98,6.06-18.03.83-2.64,1.59-5.35,1.72-8.12.16-3.27-.68-6.31,1.17-9.29.37-.59-3.08-1.06-3.6-.29-2.53,3.73-.41,8.27-3.19,11.84-.36.46,2.75.9,3.33.27,3.28-3.56,1.3-7.91,3.47-11.82l-3.6-.29c-2.61,4.29-.89,9.91-2.64,14.67-2.32,6.29-5.56,12.23-8.01,18.48s-4.33,12.83-5.5,19.52-1.58,13.96-3.15,20.81c-1.39,6.08-3.91,11.77-6.35,17.48-2.87,6.7-5.23,13.53-7.33,20.5-1.93,6.41-3.63,12.92-6.4,19.03-1.95,4.3-4.24,8.95-3.3,13.8.18.91,2.94.57,3.48.28,4.71-2.6,4.69-8.72,6.46-13.26,3.18-8.14,7.2-15.95,10.26-24.14,2.86-7.68,4.63-15.66,7.25-23.4,2.76-8.16,7-15.73,10.29-23.67.07-.17-1.53-.46-1.73,0h0Z"/>
        <path class="cls-1" d="m72.81,179.11c9.1,38.49,15.2,77.84,22.2,116.76,1.74,9.69,3.44,19.38,5.14,29.08,1.5,8.54,4.3,16.45,7.27,24.56,6.45,17.66,7.64,36.41,12.14,54.57,1.16,4.68,2.59,9.52,2.86,14.35.29,5.15-.48,9.6,1.31,14.6,1.68,4.7,2.5,8.83,1.73,13.84s-2.38,9.57-3.01,14.49c0,.07.39.1.4,0,1.13-8.12,5.1-16.15,2.92-24.43-1.13-4.28-2.88-7.76-2.69-12.32s.31-8.73-.46-13.32c-1.6-9.47-3.68-18.75-4.76-28.31s-1.97-18.36-4.88-27.17c-2.63-7.95-6.19-15.58-8.3-23.71-2.41-9.3-3.56-18.98-5-28.46-2.99-19.75-6.55-39.41-9.96-59.1-3.81-21.99-8.5-43.85-14.24-65.42-.18-.66-2.75-.4-2.66,0h0Z"/>
        <path class="cls-1" d="m69.65,192.09c6.61,43.02,12.87,86.08,19.24,129.14,3.23,21.79,6.58,43.6,9.21,65.47,2.39,19.84,8.03,38.89,13.44,58.06,3.06,10.82,2.78,21.85,3.73,32.97,1.02,11.84,1.83,23.76,3.34,35.55.06.43,1.94.43,1.99,0,1.24-10.59-.02-21.23-.74-31.83-.66-9.69,0-19.75-1.58-29.33s-4.78-19.03-6.97-28.53c-2.2-9.5-4.88-18.91-6.71-28.48-4.12-21.48-6.32-43.45-9.57-65.08-3.24-21.55-6.8-43.04-10.4-64.54-4.09-24.46-8.11-48.92-12.07-73.4-.11-.71-3-.51-2.92,0h0Z"/>
        <path class="cls-1" d="m99.34,1006.4c-.08-28.71,2.09-57.43,6.85-85.75s10.48-56.98,10.28-86.19c0-1.2-5.74-1.29-5.84,0-2.36,29.21-9.07,57.37-13.86,86.19-4.71,28.39-6.19,57.01-5.4,85.75.05,1.71,7.97,1.68,7.97,0h0Z"/>
        <path class="cls-1" d="m110.3,1038.84c.24-32.14-.53-64.31-1.81-96.43-.62-15.65-.74-31.38-1.95-46.99-1.25-16.06-3.52-32.01-5.49-47.99-.14-1.15-5.13-1.16-5.31,0-2.41,15.65-.79,31.31-.11,47.03s.6,31.98.95,47.96c.72,32.15,2.12,64.26,2.03,96.43,0,2.45,11.67,2.52,11.69,0h0Z"/>
        <path class="cls-1" d="m115.1,1048.58c-2.21-26.41-2.13-52.92-1.38-79.4.75-26.48,2.7-53.16-.21-79.57-.14-1.29-5.83-1.3-5.98,0-2.97,26.38-3.38,53.05-3.84,79.57s-.25,53,2.24,79.4c.2,2.1,9.31,1.76,9.16,0h0Z"/>
        <path class="cls-1" d="m118.93,1068.04c-2.23-28.1-3.75-56.26-5.38-84.4-1.62-28.1-3.64-56.7-9.34-84.3-.25-1.23-5.57-1.16-5.58,0-.12,28.06,1.72,56.31,3.54,84.3s3.55,56.3,5.99,84.4c.21,2.46,10.92,2.09,10.76,0h0Z"/>
        <path class="cls-1" d="m126.25,1058.31c-5.88-47.47-7.98-95.41-14.78-142.75-.25-1.76-7.94-1.66-7.97,0-.74,47.6,3.88,95.52,9.47,142.75.37,3.14,13.58,2.42,13.28,0h0Z"/>
        <path class="cls-1" d="m114.9,1042.09c-.82-35.8-3.06-71.59-2.83-107.41s4.29-71.09,4.54-106.72c0-1.25-6.02-1.35-6.11,0-2.24,35.64-7.75,70.96-8.2,106.72s2.47,71.6,3.84,107.41c.07,1.91,8.81,1.82,8.77,0h0Z"/>
        <path class="cls-1" d="m125.12,999.91c-5.51-57.24-.27-114.75-5.09-171.95-.12-1.48-6.78-1.5-6.91,0-4.86,56.89-5.15,115.13.97,171.95.28,2.56,11.22,2.09,11.02,0h0Z"/>
        <path class="cls-1" d="m110.67,964.23c-.09-24.83,1.46-49.62,4.43-74.26,1.39-11.5,3.15-22.9,5.2-34.3s3.35-22.7,1.7-34.18c-.15-1.07-4.81-.97-4.78,0,.29,11.22-2.05,22.33-4.08,33.3-2.17,11.7-4,23.35-5.29,35.19-2.68,24.67-3.94,49.45-3.55,74.26.02,1.36,6.38,1.35,6.38,0h0Z"/>
        <path class="cls-1" d="m91.84,1016.13c1-53.18,10.28-105.73,10-158.97,0-1.42-6.77-1.53-6.91,0-4.58,53.03-13.25,105.65-14.25,158.97-.04,2.3,11.11,2.44,11.16,0h0Z"/>
        <path class="cls-1" d="m87.57,999.91c4.93-30.46,10.82-60.75,17.39-90.9,3.13-14.36,6.83-28.75,8.78-43.33,1.83-13.72,2.76-27.72,7.08-40.96.38-1.17-7.52-1.93-8.35-.33-6.49,12.48-9.48,25.88-12.37,39.54-3.12,14.76-6.73,29.39-9.92,44.13-6.58,30.46-12.47,61.07-17.37,91.85-.4,2.48,14.16,3.63,14.74,0h0Z"/>
        <path class="cls-1" d="m72.75,1016.13c10.25-41.89,19.5-84.12,27.33-126.53.29-1.57-8.74-2.23-9.43,0-12.86,41.66-23.2,84.13-33.3,126.53-.54,2.25,14.44,3.94,15.41,0h0Z"/>
        <path class="cls-1" d="m56.97,1022.62c4.53-21.5,8.43-43.07,11.06-64.89.13-1.07-5.68-1.42-5.98,0-4.49,21.61-8.54,43.31-13.19,64.89-.27,1.23,7.67,2.06,8.1,0h0Z"/>
        <path class="cls-1" d="m54.76,1025.87c9.27-30.52,17.54-61.39,29.96-90.84.42-1.01-7.86-2.14-8.87-.35-16.19,28.69-26.2,60.18-36.9,91.19-.61,1.77,14.5,4.3,15.8,0h0Z"/>
        <path class="cls-1" d="m54.89,1025.87c7.47-22.39,14.91-44.73,18.5-68.13.29-1.86-9.89-2.47-10.62,0-6.84,23.09-15.31,45.66-23.94,68.13-.62,1.61,14.59,4.44,16.07,0h0Z"/>
        <path class="cls-1" d="m49.98,1038.84c13.96-32.73,21.44-67.71,35.03-100.57.74-1.78-13.66-3.7-15.39-.61-18.08,32.22-29.35,67.44-44.07,101.18-1.25,2.86,11.03,3.58,12.22,3.58,3.36,0,10.61.19,12.22-3.58h0Z"/>
        <path class="cls-1" d="m70.82,970.71c7.84-29.33,20.48-57.62,25.76-87.6.26-1.49-7.79-1.91-8.5,0-10.67,28.74-21.22,57.86-28.81,87.6-.42,1.63,10.76,2.97,11.55,0h0Z"/>
        <path class="cls-1" d="m92.55,902.58c4.67-21.29,9.36-42.57,14.11-63.84,1.87-8.37,3.45-16.75,5.02-25.17,1.35-7.21,2.77-14.96,6.95-21.13.51-.75-3.44-.89-4.1-.33-5.47,4.68-7.83,11.99-9.4,18.78-1.99,8.6-3.73,17.3-5.53,25.94-4.57,21.9-9.07,43.82-13.56,65.74-.21,1.01,6.15,1.64,6.51,0h0Z"/>
        <path class="cls-1" d="m91.25,902.58c3.47-25.08,7.74-50.06,13.77-74.66,3.03-12.36,6.73-24.53,9.98-36.84,1.62-6.13,3-12.33,4.62-18.46,1.45-5.48,3.8-10.23,3.25-16.03-.13-1.38-5.85-1.33-6.39-.25-2.4,4.72-5.21,9.21-7.28,14.11-2.53,5.99-4.01,12.49-5.64,18.77-3.28,12.58-6.7,25.13-9.6,37.8-5.71,24.92-9.6,50.2-12.67,75.57-.22,1.78,9.63,2.39,9.96,0h0Z"/>
        <path class="cls-1" d="m92.68,889.61c5.93-42.53,8.21-85.78,22.92-126.53.19-.52-3.64-.97-4.04-.16-19.48,39.34-20,84.02-25.65,126.69-.16,1.19,6.55,1.64,6.77,0h0Z"/>
        <path class="cls-1" d="m111.09,860.41c3.66-26.76,8.29-53.37,11.86-80.14,1.28-9.61,1.78-18.86,1.82-28.53.03-7.39-.66-17.95,4.23-24.08.84-1.05-5.53-1.44-6.66-.54-6.59,5.25-8.44,14.06-9.38,22-1.16,9.77-1.89,19.46-3.33,29.21-4.04,27.34-8.29,54.66-11.82,82.07-.3,2.35,12.84,3.2,13.28,0h0Z"/>
        <path class="cls-1" d="m118.73,844.19c1.02-23.18,4.64-46.1,7.2-69.14,1.25-11.29,1.73-22.64,2.93-33.94s4.81-22.29,3.51-33.18c-.21-1.71-6.7-1.44-7.3,0-8.78,20.97-8.12,44.92-10.32,67.12-2.28,23.04-5.63,45.97-6.37,69.14-.07,2.09,10.26,2.31,10.36,0h0Z"/>
        <path class="cls-1" d="m111.67,886.36c2.41-15.25,3.23-30.59,3.89-46s3.46-31.5,6.14-47.12,5.34-30.04,8.15-45.05c2.91-15.54,5.71-30.88,5.47-46.75-.02-1.48-6.91-1.59-7.17,0-5.02,30.73-12.06,61.09-17.24,91.81-2.58,15.28-4.79,30.62-5.08,46.14s-.53,31.35-2.53,46.98c-.19,1.48,8.05,2.01,8.37,0h0Z"/>
        <path class="cls-1" d="m121.83,879.87c0-16.52-.55-33.08.81-49.56,1.29-15.71,4.4-31.2,6.2-46.86,1.78-15.42,1.35-30.88,2.36-46.34.42-6.43,1.47-12.75,2.31-19.12.72-5.48,1.35-11.69,4.72-16.27.92-1.25-5.82-1.38-6.92-.56-4.66,3.47-6.31,8.69-7.5,14.17-1.29,5.92-2.24,12.03-2.92,18.04-1.79,16.01-1.18,32.16-3.1,48.17-1.91,15.96-4.93,31.77-6.14,47.81-1.27,16.81-.5,33.69-.32,50.52.02,2.22,10.49,2.24,10.49,0h0Z"/>
        <path class="cls-1" d="m94.08,837.7c2.36-17.29,3.78-34.47,4.34-51.91.04-1.21-5.89-1.39-6.11,0-2.7,17.29-5.29,34.58-7.79,51.91-.24,1.65,9.24,2.33,9.56,0h0Z"/>
        <path class="cls-1" d="m95.6,873.39c-2.63-32.91,5.73-64.95,10.07-97.33.21-1.57-7.85-1.89-8.5,0-10.65,31.16-17.14,64.3-14.18,97.33.26,2.89,12.81,2.44,12.62,0h0Z"/>
        <path class="cls-1" d="m104.17,795.52c4.41-18.94,8.32-37.99,11.85-57.12,1.71-9.28,2.98-18.5,4.14-27.86,1.05-8.43,4.59-16.76,3.51-25.33-.22-1.75-7.87-1.76-8.1,0-.63,4.77-2.63,8.82-4.34,13.25-1.5,3.89-2.42,7.99-3.21,12.08-1.78,9.23-2.89,18.59-4.45,27.86-3.23,19.12-6.84,38.17-10.95,57.12-.38,1.76,10.88,2.92,11.55,0h0Z"/>
        <path class="cls-1" d="m120.3,720.91c-.1-19.21,3.12-38.1,5.83-57.05,1.38-9.62,2.7-19.27,3.3-28.98.26-4.2.27-8.36,1.14-12.5s2.37-8.28,3.55-12.43c2.65-9.34,1.73-18.4,1.56-27.95s1.84-19.04,2.57-28.53c1.44-18.93,5.89-37.36,6.9-56.3.56-10.46,1.52-20.89,2.37-31.32.7-8.63.48-18.18,4.56-26.03l-4.06-.16c1.03,9.01-1.29,17.97-2.67,26.83-1.57,10.05-2.11,20.27-2.57,30.42-.94,20.68-1.11,41.41-3.37,62.01-4.4,40.16-9.69,80.9-20.33,119.9-.2.73,3.04.49,3.4.27,2.78-1.7,2.58-5.99,2.62-8.84.06-5.15-.09-10.18.28-15.34,1.11-15.62,4.61-30.92,7.21-46.32s5.84-31.3,8.43-47.01,2.49-30.91,5.93-46.01h-5.72c.15,13.91-1.61,28.03-2.66,41.88-1.92,25.61-4.06,51.2-6.43,76.76-2.11,22.72-4.6,45.37-7.39,68.01-.72,5.79-.87,11.97-2.54,17.6-.17.56-.5,1.19-.61,1.75-.03.16-.22.32-.32.44,1.93-2.28.06-7.15-.2-9.86-1.18-12.08-.35-24.31.99-36.34,1.53-13.7,4.07-27.26,5.99-40.91s3.13-28,4.22-42.02,2.04-28.19,2.05-42.29-.19-27.17,2.43-40.58c.12-.64-3.74-.98-3.98,0-4.25,16.95-4.33,34.63-5.18,51.98-.9,18.34-1.99,36.68-3.63,54.97-1.57,17.47-4.04,34.83-5.72,52.28-.84,8.73-1.39,17.47-1.05,26.24s2.1,17.75,3.74,26.71c.04.21.5.23.64.25,4.14.38,5.41-13.48,5.92-15.97,3.08-15.14,4.42-30.75,6.16-46.09,4.26-37.62,7.85-75.33,11-113.06.88-10.51,2.26-21.2,2.27-31.76,0-1.18-5.42-1.26-5.72,0-3.46,14.44-3.76,29.45-6.13,44.08-2.44,15.06-5.28,30.06-7.59,45.14-2.26,14.79-5.39,29.48-6.79,44.4-.54,5.79-.84,11.52-.25,17.32.29,2.85,1.78,10.09-1.13,12.04l3.4.27c7.95-39.88,16.5-79.43,21.14-119.9,2.36-20.6,1.95-41.32,2.46-62.01.25-10.09.33-20.44,1.95-30.42,1.45-8.96,3.94-17.68,3.88-26.83,0-.9-3.66-.78-4.06-.16-3.95,6.13-5.73,13.45-6.69,20.6-1.17,8.69-2.34,17.38-3.09,26.11-.83,9.61-1.02,19.28-2.65,28.8s-3.96,19.27-4.87,29.11-1.82,19.16-3.14,28.73.79,19.01-.18,28.51c-.88,8.64-5.11,16.52-5.82,25.18-.79,9.66-.77,19.3-1.94,28.96-2.65,21.8-6.99,43.35-6.84,65.41.01,1.58,7.45,1.58,7.44,0h0Z"/>
        <path class="cls-1" d="m122.64,681.99c.06,0,.06-.03,0-.03s-.06.03,0,.03h0Z"/>
        <path class="cls-1" d="m135.68,649.53c6.26-32.24,6.63-64.91,4.44-97.59-1.09-16.27-3.89-32.39-4.57-48.69-.33-7.97-.19-16.04.57-23.98.6-6.19,2.81-12.4-.35-18.23-.81-1.49-7.68-1.43-8.22.33-2.01,6.56-4.97,12.93-6.12,19.71-1.34,7.87-1.16,16.09-.81,24.04.71,15.99,3.05,31.87,4.72,47.77,3.38,32.27,2.53,64.75-3.6,96.65-.43,2.22,13.27,3.5,13.95,0h0Z"/>
        <path class="cls-1" d="m118.25,580.71c-.28,9.86-1.56,19.63-2.48,29.44s-2.49,18.77-1.11,28.3c.26,1.8,7.88,1.79,8.23,0,3.85-19.32,7.89-37.91,7.05-57.74-.11-2.5-11.62-2.5-11.69,0h0Z"/>
        <path class="cls-1" d="m123.54,634.38c2.61-26.3,4.48-52.78,8.65-78.88.16-.97-5.17-1.29-5.58,0-7.89,25.23-8.06,52.68-9.58,78.88-.07,1.26,6.36,1.49,6.51,0h0Z"/>
        <path class="cls-1" d="m149.08,554.69c.84-8.03,1.56-16.09,2.75-24.08.51-3.46.32-13.29,3.46-15.41l-8.43-.67c-.65,10.73-.79,21.21-2.28,31.9s-3.04,21.15-2.97,31.87c0,1.55,7.33,1.69,7.56,0,1.67-11.91,2.73-23.84,3.26-35.85.5-11.34.2-22.82,1.38-34.12.1-.91-4.44-1.06-4.78,0-3.58,11.15-3.28,22.54-3.86,34.12s-1.49,24.02-3.56,35.85h7.56c.31-10.76,2.24-21.3,4.08-31.87s4.37-21.56,2.64-31.9c-.38-2.29-7.68-1.43-8.88-.35-3.33,2.99-2.72,9.63-3.18,13.67-1.01,8.93-1.59,17.87-2.21,26.84-.1,1.43,7.26,1.72,7.44,0h0Z"/>
        <path class="cls-1" d="m159.2,511.58c-4.26-14.73-2.9-31.34-2.9-46.52,0-8.34.13-16.7.6-25.03.39-6.8,2.1-14.45.18-21.15-.57-1.98-6.4-1.34-7.67-.61-6.09,3.51-5.88,13.68-6.06,19.83-.24,8.34-.07,16.71.22,25.05.56,16.01.38,33.3,6.2,48.44.88,2.28,9.82,1.33,9.43,0h0Z"/>
        <path class="cls-1" d="m137.9,460.35c.25-19.58,3.55-38.56,7.17-57.74.03-.15-.88-.23-.93,0-4.36,18.87-6.61,38.37-6.51,57.74,0,.06.26.06.27,0h0Z"/>
        <path class="cls-1" d="m138.7,457.1c1.48-13.2,4.18-26.12,6.84-39.11,2.54-12.39,4.02-24.73,5.01-37.33.16-2.03-9.33-2.11-10.17-.4-5.76,11.68-8.85,24.09-11.48,36.79s-4.68,26.64-5.73,40.06c-.23,2.94,15.13,3.62,15.54,0h0Z"/>
        <path class="cls-1" d="m148.39,316.41c-1.32,12.88-2.22,25.82-3.11,38.73s-3.29,26.2-4.38,39.34c-.02.25,1.26.3,1.33,0,1.53-6.39,2.05-12.99,3.39-19.42s3.17-13.23,4.42-19.92c2.39-12.77,2.88-25.85,4.46-38.73.13-1.1-5.96-1.46-6.11,0h0Z"/>
        <path class="cls-1" d="m140.45,388.79c1.83-12.14,4.27-24.09,5.83-36.28.73-5.68,1.21-11.39,2.17-17.04s2.66-10.91,2.6-16.62c0-.46-2.19-.5-2.26,0-.77,5.71-3.01,11.06-4.44,16.62s-2.63,11.32-3.42,17.04c-1.66,12.03-3.25,24.19-4.34,36.28-.06.72,3.72.9,3.85,0h0Z"/>
        <path class="cls-1" d="m148.53,319.66c-2.47,13.05-5.1,26.02-7.37,39.11s-3.73,26.91-4.81,40.58c-.02.25,1.29.31,1.33,0,1.46-13.65,3.12-27.09,5.67-40.58s5.3-26.06,7.98-39.11c.09-.43-2.65-.71-2.79,0h0Z"/>
        <path class="cls-1" d="m139.01,386.35c4.18-17.58,9.41-34.76,10.9-52.86.07-.89-4.19-.98-4.52,0-5.76,17.35-10.01,34.91-13.42,52.86-.22,1.13,6.63,1.74,7.04,0h0Z"/>
        <path class="cls-1" d="m149.92,351.38c-1.68,16.51-2.41,33.09-3.87,49.61-.05.6,3.02.73,3.19,0,3.74-16.16,3.03-33.14,3.73-49.61.03-.6-2.98-.7-3.05,0h0Z"/>
        <path class="cls-1" d="m141.91,644.95c2.77-18.89,8.92-37.47,13.88-55.87,5.07-18.85,11.17-37.17,19.3-54.9s14.25-35.78,23.64-52.58c4.11-7.36,8.23-15.11,11.61-22.83,4.07-9.31,7.25-18.84,12.12-27.82s10.29-16.76,14.41-25.7c2.48-5.37,4.69-10.87,7.92-15.85,2.22-3.43,4.67-6.58,6.27-10.36,0-.01-.12-.04-.13,0-1.77,4.04-4.46,7.31-6.82,10.98s-4.12,7.29-5.86,11.08c-4.13,9.03-9.26,17.3-14.3,25.83-9.7,16.42-16.29,34.48-25.33,51.25-4.33,8.03-8.29,16.03-11.98,24.37-4.04,9.14-7.33,18.7-11.92,27.57-3.86,7.45-7.81,14.98-10.53,22.94-3.13,9.16-5.89,18.48-8.85,27.7-3.42,10.66-6.26,21.5-9.38,32.25-3.05,10.55-6.1,21.07-7.77,31.95-.1.63,3.59.91,3.72,0h0Z"/>
        <path class="cls-1" d="m265.75,354.66c1.41-2.59,3.29-5.16,3.68-8.16,0-.07-.38-.1-.4,0-.48,3-2.43,5.54-3.92,8.11-.06.11.56.2.64.05h0Z"/>
        <path class="cls-1" d="m165.07,523.03c4.31-7.37,9.93-13.71,14.56-20.83,4.96-7.62,8.16-16.25,13.06-23.95,2.15-3.38,4.18-6.93,6.61-10.13,2.58-3.39,5.75-6.27,8.27-9.71,1.93-2.63,3.08-5.38,4.42-8.32,1.79-3.95,4.11-7.42,5.08-11.7.02-.08-.5-.13-.53,0-.96,4.02-3.22,7.29-4.88,11-1.87,4.19-3.35,8.02-6.44,11.5-5.4,6.07-10.26,12.01-14.83,18.76-4.84,7.13-7.92,15.16-12.51,22.39s-10.02,13.48-14.21,20.86c-.14.24,1.23.42,1.41.11h0Z"/>
        <path class="cls-1" d="m194.65,477.54c6.44-12.02,15.42-22.22,20.13-35.13,2.28-6.27,6.74-11.13,9.3-17.15.65-1.54.81-3.1,1.81-4.51.75-1.04,1.75-1.91,2.5-2.97,1.66-2.33,2.22-4.82,3.53-7.28s2.78-5.13,4.67-7.09c2.14-2.22,2.57-4.69,4.06-7.41,3.29-6.02,6.89-12.25,10.92-17.8,1.99-2.74,4.36-5.2,5.99-8.18s2.74-5.91,4.08-8.85c2.15-4.7,2.95-10.42,7.15-13.82.04-.04-.49-.18-.64-.05-3.8,3.27-4.79,8.73-6.92,13.07-2.99,6.12-6.52,11.61-10.59,17.05s-7.4,11.72-10.75,17.72c-1.38,2.47-2.3,5.56-4.08,7.7-1.98,2.39-3.53,4.23-5.12,6.99-1.35,2.34-1.98,5-3.54,7.28-1.37,1.99-3.23,3.5-4.32,5.66-.72,1.43-.96,3.04-1.85,4.45-1.03,1.62-2.41,3.05-3.55,4.6-1.79,2.45-3.7,5.08-5.07,7.8-3.04,6.05-4.67,12.37-8.53,18.09-4.3,6.37-8.48,12.79-12.01,19.62-.27.52,2.49.84,2.82.23h0Z"/>
        <path class="cls-1" d="m265.57,355.52c1.3-2.49,2.4-5.1,4.11-7.36.1-.13-.74-.24-.9-.07-1.99,2.2-3.4,4.81-5.01,7.28-.18.27,1.57.57,1.79.15h0Z"/>
        <path class="cls-1" d="m264.21,354.63c-4.58,10.4-11.16,20.19-17.9,29.27-.03.04.21.07.26.02,7.12-8.97,13.83-18.79,18.57-29.29.04-.08-.82-.25-.93,0h0Z"/>
        <path class="cls-1" d="m162.26,556.31c3.6-8.26,6.68-16.93,11.25-24.72,3.97-6.75,7.49-13.53,10.94-20.56,3.24-6.6,6.64-13.27,10.12-19.75,1.92-3.58,4.17-6.95,6.03-10.57,1.3-2.54,3.47-5.31,3.71-8.16.04-.49-2.19-.49-2.39,0-3.16,7.71-8.82,14.34-12.65,21.71-3.47,6.66-7.11,13.23-10.49,19.93s-7.58,13.23-11.26,19.97c-3.89,7.11-6.82,14.78-10.17,22.15-.19.41,4.33,1.34,4.91,0h0Z"/>
        <path class="cls-1" d="m163.43,545.04c3.34-7.2,5.8-14.88,9.76-21.77s8.6-14.1,12.52-21.43,7.46-14.23,11.96-20.86c2.7-3.98,8.42-8.82,8.3-14.12-.01-.59-2.46-.54-2.66,0-1.08,2.91-3.97,5.02-5.99,7.27-2.35,2.62-4.25,5.7-6.05,8.71-4.09,6.82-7.47,14.04-11.04,21.14s-7.83,13.59-11.33,20.6c-3.27,6.54-5.35,13.64-8.22,20.35-.12.29,2.46.71,2.74.11h0Z"/>
        <path class="cls-1" d="m200.16,474.31c3.07-4.55,5.97-9.21,8.49-14.09,1.72-3.32,3.93-6.57,3.89-10.44,0-.45-2.01-.46-2.12,0-1,3.88-3.97,8.14-5.86,11.71-2.3,4.33-4.88,8.49-7.6,12.56-.32.48,2.73.96,3.2.26h0Z"/>
        <path class="cls-1" d="m156.71,565.26c4.16-10.68,7.89-21.51,11.37-32.42h-7.26c-.86,2.97-.82,6.21-1.55,9.25-.91,3.78-1.96,7.51-2.72,11.33-1.55,7.71-2.44,15.5-3.55,23.28h2.84c-.91-15.77,6.22-30.81,10.68-45.59.12-.4-2.5-.65-2.79,0-6.61,14.63-9.46,29.69-10.73,45.59-.04.55,2.66.64,2.84,0,2.11-7.72,3.79-15.55,5.87-23.28,1.87-6.93,4.34-13.7,6.38-20.58.27-.93-6.72-1.92-7.26,0-3.05,10.91-6.35,21.73-10.09,32.42-.24.7,5.38,1.54,5.98,0h0Z"/>
        <path class="cls-1" d="m137.19,692.93c0-20.12,4.3-39.74,7.85-59.42h-9.82c-1.29,12.54-3.62,24.96-4.94,37.52-.65,6.22-1.05,12.48-1.38,18.73-.36,6.83-1.28,13.98-.86,20.8.1,1.62,7.25,1.4,7.15,0-.61-7.85,1.05-15.82,1.85-23.62.6-5.91.36-12.34,3.28-17.71l-3.81-.15c1.02,5.72-.35,11.25-1.05,16.91-.8,6.55-1.26,13.21-1.41,19.8-.01.61,2.91.68,3.03,0,.86-4.89,1.57-9.81,2.39-14.7.76-4.55.8-9.41,2.94-13.59l-5.01-.2c.3,5.58-.56,11.05-1.48,16.53s-.46,10.47-.58,16.03c-.02.99,4.49,1.04,4.79,0,3.51-12.13,4.04-25.15,5.78-37.62,1.89-13.63,5.16-27.12,5.32-40.93.01-1.12-5.36-1.25-5.55,0-.96,6.26-.58,12.54-.83,18.84-.27,6.79-1.06,13.54-1.98,20.27-.85,6.2-1.69,12.4-2.7,18.58-.49,3-.37,10.87-2.68,13.15l5.49.22c-.08-3.34,1.61-6.85.15-10.05-.33-.73-2.76-.69-3.24-.13l-.53.62c-.36.42,2.43.65,2.95.24l.76-.6-3.24-.13c.61,3.55-2.31,6.53-2.44,10.05-.05,1.36,4.85.8,5.49.22,2.37-2.14,1.79-6.98,2.21-9.91.98-6.77,1.9-13.55,2.88-20.33s1.94-14.11,2.31-21.22c.34-6.62-.07-13.24.97-19.81h-5.55c-.23,13.8-3.09,27.29-4.87,40.93-1.63,12.47-2.05,25.48-5.46,37.62h4.79c.58-5.4.32-10.64,1.24-16.03s1.79-10.9,1.14-16.53c-.14-1.21-4.67-.99-5.11,0-1.82,4.08-1.32,8.55-1.48,12.91-.19,5.28-.8,10.4-1.87,15.58h3.03c.3-6.61.86-13.25,1.76-19.8.77-5.64,2.25-11.19,1.54-16.91-.11-.85-3.43-.77-3.81-.15-3.07,5.06-3.39,11.07-4.23,16.79-1.21,8.23-2.24,16.79-4.3,24.84h7.15c1.34-13.18,1.65-26.41,3.59-39.53.92-6.19,1.94-12.37,3.08-18.52s3.58-12.78,3.18-19c-.13-2.12-9.76-2.09-9.82,0-.28,9.81-2.5,19.73-3.86,29.45s-2.3,19.92-2.14,29.97c.03,1.7,7.97,1.7,7.97,0h0Z"/>
        <path class="cls-1" d="m539.05,385.05c.08,0,.08-.04,0-.04s-.08.04,0,.04h0Z"/>
        <path class="cls-1" d="m524.36,403.68c.08,0,.08-.04,0-.04s-.08.04,0,.04h0Z"/>
        <path class="cls-1" d="m161.68,433.36c2.76-9.6,4.86-19.32,6.63-29.14,1.65-9.16,4.38-18.26,6.51-27.34.06-.26-1.6-.43-1.73,0-2.55,9.02-5.65,18.12-7.34,27.34-1.8,9.83-3.93,19.55-6.73,29.14-.1.35,2.46.7,2.66,0h0Z"/>
        <path class="cls-1" d="m166.51,442.68c3.72-11.84,5.44-23.84,8.28-35.86,1.34-5.69,3.25-11.24,4.81-16.87,1.41-5.1,4.23-11.9,2.86-17.14-.28-1.07-4.47-1.08-4.96-.2-11.8,21.34-12.86,46.89-18.96,70.07-.3,1.13,7.34,2,7.97,0h0Z"/>
        <path class="cls-1" d="m168.63,397.84c1.81-11.33,4.3-22.38,7.31-33.45,2.88-10.59,6.62-21.01,8.67-31.77.06-.3-1.58-.39-1.73,0-3.88,10.33-5.74,21.1-8.41,31.77s-5.36,22.13-7.17,33.45c-.04.22,1.28.33,1.33,0h0Z"/>
        <path class="cls-1" d="m169.92,387.94c3.12-12.02,7.35-23.48,11.05-35.3s7.46-23.7,7.8-35.74c.04-1.23-5.25-1.16-5.71,0-2.36,5.95-4.91,11.69-6.48,17.91s-2.86,11.95-4.64,17.83c-3.56,11.8-6.9,23.17-9.2,35.3-.22,1.16,6.72,1.75,7.17,0h0Z"/>
        <path class="cls-1" d="m175.27,373.97c4.31-10.85,8.15-21.77,11.07-33.08,1.36-5.27,2.48-10.6,3.94-15.84s3.83-9.92,4.7-15.13c.16-.98-4.46-.94-4.96-.2-6.2,9.24-6.84,19.64-9.04,30.25-2.38,11.49-5.84,22.84-9.43,33.99-.15.48,3.35.93,3.72,0h0Z"/>
        <path class="cls-1" d="m177.15,386.2c2.06-7.03,4.93-13.71,7.49-20.57s4.31-13.68,6.46-20.54c4.31-13.76,9.99-26.63,12.15-41,.17-1.15-5.76-1.35-6.26-.25-6.06,13.21-11.58,26.18-15.04,40.36-3.42,14-6.07,28.14-10.12,41.99-.2.69,4.91,1.39,5.31,0h0Z"/>
        <path class="cls-1" d="m191.66,320.98c5.27-13.01,11.37-25.19,14.36-39.01.12-.55-2.88-.69-3.19,0-5.66,12.62-10.38,25.98-15.02,39.01-.16.45,3.45.98,3.85,0h0Z"/>
        <path class="cls-1" d="m189.59,315.74c4.1-11.49,9.67-22.36,12.12-34.36.19-.93-4.88-1.16-5.35-.21-2.67,5.48-5.37,10.89-7.78,16.49s-3.79,12-5.23,18.08c-.23.96,5.71,1.49,6.24,0h0Z"/>
        <path class="cls-1" d="m189.96,308.75c3.15-8.27,6.62-16.42,9.75-24.69,2.88-7.61,4.22-15.62,5.46-23.64.16-1.05-5.27-1.23-5.74-.23-7.29,15.67-12.93,32.26-18.63,48.56-.37,1.06,8.26,2.37,9.16,0h0Z"/>
        <path class="cls-1" d="m206.04,287.21c1.54-7.18,3.73-14.23,4.59-21.54.09-.73-3.41-.78-3.72,0-2.8,7.07-5.41,14.19-7.38,21.54-.24.88,6.14,1.72,6.51,0h0Z"/>
        <path class="cls-1" d="m204.94,270.32c3.05-10.26,6.73-20.34,8.79-30.86.04-.19-1.12-.29-1.2,0-2.87,10.4-6.48,20.57-9.71,30.86-.08.26,1.96.56,2.12,0h0Z"/>
        <path class="cls-1" d="m207.63,261.59c3.07-8.14,6.56-16.1,9.65-24.23s6.76-16.33,7.49-24.68c.07-.76-3.41-.77-3.72,0-3.26,8.07-5.5,16.57-8.76,24.68s-6.32,15.99-8.92,24.23c-.17.54,3.85,1.07,4.25,0h0Z"/>
        <path class="cls-1" d="m208.6,265.66c2.42-8.57,5.56-16.87,8.77-25.17s4.53-16.08,6.43-24.33c.2-.88-4.46-1-4.96-.2-4.56,7.36-7.56,15.54-10.41,23.67-3.01,8.6-6.01,17.17-8.21,26.02-.3,1.21,7.77,2.12,8.37,0h0Z"/>
        <path class="cls-1" d="m222.09,219.28c6.99-14.13,15.17-27.69,22.39-41.71,3.29-6.38,7.02-12.33,9.98-18.89,1.41-3.12,3.23-6.1,4.47-9.28,1.15-2.96,1.32-5.87,1.83-8.93.14-.84-3.36-.57-3.78-.15-2.2,2.2-2.71,4.76-3.91,7.59-1.51,3.56-3.22,7.03-4.89,10.52-3.33,6.99-7.66,13.32-11.11,20.22-6.7,13.4-13.81,26.75-19.93,40.43-.22.5,4.42,1.28,4.96.2h0Z"/>
        <path class="cls-1" d="m252.17,142.03c-6.97,13.02-12.9,26.62-19.88,39.62-.45.84,3.49.97,4.1.33,5.05-5.28,7.4-11.81,10.46-18.31,3.33-7.08,6.5-14.23,9.93-21.26.43-.89-4.08-1.36-4.61-.37h0Z"/>
        <path class="cls-1" d="m210.54,177.37c-3.4,11.66-5.41,23.79-8.61,35.54-1.58,5.83-2.89,11.77-4,17.71-1.23,6.51-1.22,13.14-1.8,19.72-.02.2,1.01.25,1.06,0,2.78-12.41,4.21-25.08,7.28-37.43,2.93-11.75,4.66-23.87,7.79-35.54.06-.24-1.6-.44-1.73,0h0Z"/>
        <path class="cls-1" d="m195.43,260.87c.06,0,.06-.03,0-.03s-.06.03,0,.03h0Z"/>
        <path class="cls-1" d="m194.5,284.52c2.76-17.69,7.76-34.82,11.57-52.28,1.82-8.33,2.81-16.76,4.17-25.16s3.6-16.52,3.58-25.1c0-.49-2.29-.53-2.39,0-1.61,8.52-4.83,16.51-6.23,25.1s-2.36,16.83-4.17,25.16c-3.79,17.39-7.82,34.53-9.58,52.28-.06.56,2.94.72,3.05,0h0Z"/>
        <path class="cls-1" d="m208.68,166.19c-1.27,8.03-3.07,15.95-4.89,23.87s-4.53,15.87-5.92,23.99c-2.69,15.73-3.27,31.83-6.51,47.46-.07.33,1.82.46,1.99,0,5.59-15.22,6.7-31.7,10.16-47.46,3.51-15.99,8.19-31.62,10.61-47.86.14-.93-5.24-1.33-5.45,0h0Z"/>
        <path class="cls-1" d="m124.59,437.69c-4.37-16.56-8.48-33.19-12.91-49.73-2.04-7.62-5.31-15.46-5.53-23.41-.1-3.57-.53-6.52-1.47-9.96-1.03-3.75-2.83-7.66-3.24-11.49h-5.17c2.31,7.77,5.62,15.18,7.97,22.95s4.83,15.71,7.06,23.62,3.96,15.15,5.34,22.88c.96,5.34.38,13.14,4.68,17.03.76.68,5.47.52,4.86-.39-5.88-8.81-7.41-19.8-10.71-29.7-.26-.79-3.56-.6-3.45,0,1.84,10.39,5.1,20.2,9.21,29.9l4.95-.2c-1.7-2.11-1.45-6.24-1.75-8.8-.4-3.5-.97-6.96-1.72-10.4-1.61-7.44-3.6-14.83-5.7-22.15s-4.42-14.57-6.83-21.79c-2.6-7.78-6.11-15.19-8.74-22.95-.39-1.16-5.31-.95-5.17,0,1.04,7.15,5.15,13.22,5.27,20.69.14,8.27,3.14,16.21,5.14,24.18,4.14,16.48,7.15,33.19,10.99,49.73.42,1.79,7.16.97,6.91,0h0Z"/>
        <path class="cls-1" d="m102,341.49c-1.15-6.57-2.18-13.14-2.93-19.77-.07-.59-2.65-.55-2.66,0-.02,6.66,1.02,13.2,2,19.77.13.88,3.69.6,3.59,0h0Z"/>
        <path class="cls-1" d="m100.16,333.58c.73,2.59,1.14,5.21,1.23,7.91,0,.02.1.02.1,0-.09-2.69-.5-5.31-1.23-7.91,0-.03-.1-.01-.1,0h0Z"/>
        <path class="cls-1" d="m123.79,1064.55c1.1,6.14.76,13.21,3.4,18.94.17.37,2.14.3,2.09-.08-.93-6.26-.54-12.56-1.5-18.86-.15-.98-4.1-.66-3.98,0h0Z"/>
        <path class="cls-1" d="m130.89,1089.26c-1.6-10.47-1.88-21.03-4.99-31.21-.19-.62-2.73-.46-2.66,0,1.74,10.37,2.79,20.87,4.73,31.21.13.7,3,.51,2.92,0h0Z"/>
        <path class="cls-1" d="m124.5,1054.8c.85,6.53,1.93,13.02,3.04,19.51,0,.03.14.02.13,0-1.1-6.49-2.19-12.98-3.04-19.51,0-.03-.14-.02-.13,0h0Z"/>
        <path class="cls-1" d="m134.17,1076.26c-1.57-8.07-2.7-16.27-5.38-24.06-.35-1.02-4.85-.97-4.78,0,.54,8.06,1.91,16.07,3.12,24.06.27,1.75,7.26,1.14,7.04,0h0Z"/>
        <path class="cls-1" d="m101.92,1060.65c-2.75-15.95-2.78-32.21-5.65-48.12-.07-.38-1.73-.35-1.73,0,.03,4.01.62,7.91.96,11.89s.17,8.21.47,12.31c.59,7.97.57,15.93,1.43,23.92.12,1.1,4.65.77,4.52,0h0Z"/>
        <path class="cls-1" d="m83.39,1035.29c-1.12-9.08-1.58-18.21-2.5-27.31,0-.03-.14-.03-.13,0,.88,9.1,1.29,18.23,2.36,27.31,0,.06.27.05.27,0h0Z"/>
        <path class="cls-1" d="m81.38,1001.48c.43,9.05-.12,17.97-.21,27.01-.08,8.27,1.28,16.84,2.36,25.01.02.16.68.12.66,0-1.8-17.25-1.89-34.65-2.71-52.02,0-.02-.1-.02-.1,0h0Z"/>
        <path class="cls-1" d="m83.85,1051.55c-1.07-9.07-.17-18.21-.47-27.31-.01-.31-1.45-.32-1.46,0-.41,9.18-.79,18.2.74,27.31.05.28,1.22.22,1.2,0h0Z"/>
        <path class="cls-1" d="m84.78,1004.08c.33,10.75.04,21.44.06,32.19,0,3.2-.58,10.34,4.32,9.67.09-.01.57-.09.54-.28-.81-4.71.19-10.81.54-15.59.46-6.11,1.22-12.06,1.22-18.2,0-.38-1.8-.42-1.86,0-1.05,8.01-2.31,15.78-2.23,23.89.02,1.92-.13,4.04.3,5.92.18.81.6,4.53,1.37,2.97.45-.91-.22-3.96-.26-4.99-.42-11.84,1.14-23.76,1.43-35.6.03-1.14-5.48-1.16-5.45,0h0Z"/>
        <path class="cls-1" d="m82.08,1022.93c.71-6.4,1.62-13.07,1.36-19.51-.01-.33-1.53-.35-1.59,0-1.19,6.4-1.38,13.05-2.29,19.51-.06.44,2.46.61,2.52,0h0Z"/>
        <path class="cls-1" d="m71.26,1013.18c.43,3.3.78,6.58.89,9.9.09,2.76-.29,5.58.04,8.31.04.32,1.44.31,1.46,0,.18-2.83,1.22-5.45,1.35-8.31.15-3.3-.15-6.62-.42-9.9-.07-.78-3.4-.6-3.32,0h0Z"/>
        <path class="cls-1" d="m68.13,1047.64c1.35-7.51,4.08-14.65,5.18-22.22.98-6.79,4.07-13.85,3.94-20.7,0-.03-.13-.03-.13,0,.13,6.83-2.96,13.93-3.94,20.7-1.1,7.57-3.83,14.71-5.18,22.22,0,.02.13.03.13,0h0Z"/>
        <path class="cls-1" d="m64.01,1068.45c6.07-18.85,9.94-37.92,12.85-57.51.37-2.51.62-3.83-.63-.33-.86,2.41-1.31,4.95-1.81,7.45-.94,4.68-1.82,9.39-3.08,13.99-1.35,4.91-3.54,9.07-5.81,13.58-1.95,3.88-3.23,7.98-5.53,11.7-.18.28,1.3.37,1.54.12,3.28-3.36,4.39-6,6.16-10.18s4.04-7.58,5.36-11.81c2.88-9.23,4.62-19.09,4.49-28.71,0-.15-.66-.15-.7,0-2.72,10.11-4.07,20.73-5.54,31.08s-4.62,20.51-7.7,30.62c-.02.05.37.1.4,0h0Z"/>
        <path class="cls-1" d="m61.57,1055.45c3.77-8.61,6.72-17.12,9.29-26.15,1.22-4.3,2.39-8.59,3.46-12.93.87-3.53,1.18-8.47,3.06-11.63.04-.07-.33-.11-.38-.03-1.57,2.37-1.88,5.5-2.63,8.2-1.35,4.89-2.58,9.81-4.08,14.66-2.98,9.6-6.11,18.72-10.3,27.87-.06.13,1.4.43,1.59,0h0Z"/>
        <path class="cls-1" d="m32.31,1052.35c4.43-7.44,9.69-14.33,14.06-21.8,3.95-6.76,4.74-15.39,9.19-21.74l-1.31-.05c.22,3.92-2.85,8.04-4.71,11.39-2.14,3.84-4.37,7.62-6.44,11.5-3.8,7.12-6.97,14.83-9.45,22.5-.09.27,1.78.47,1.96.08,3.87-8.28,7.63-16.58,11.76-24.74,2.89-5.71,9.04-14.08,8.22-20.73-.04-.31-1.15-.24-1.31-.05-2.15,2.57-3.44,5.86-4.83,8.88-2.01,4.37-4.22,8.53-6.68,12.67-4.45,7.47-9.79,14.35-14.29,21.78-.38.63,3.33,1.17,3.84.31h0Z"/>
        <path class="cls-1" d="m33.43,1072.45c6.16-10.11,13.64-19.69,18.58-30.49,2.05-4.49,3.18-9.28,4.7-13.96s3.14-10.83,6.1-14.75c.18-.24-1.38-.45-1.66-.13-3.02,3.34-4.96,8.35-6.87,12.39-2.26,4.79-3.89,9.85-5.98,14.71-4.83,11.21-11.47,21.35-17.31,32.04-.24.44,2.12.71,2.43.2h0Z"/>
        <path class="cls-1" d="m63.77,1011.88c-2.83,14.6-6.61,29.31-10.82,43.57-.04.15.96.26,1.06,0,1.24-3.18,2.75-6.33,3.74-9.6,1.1-3.65,1.49-7.43,2.67-11.08,2.45-7.61,5.08-15.14,7.07-22.89.13-.52-3.53-.98-3.72,0h0Z"/>
        <path class="cls-1" d="m53.31,1068.45c4.25-10.21,8.58-20.4,12.84-30.61,1.97-4.72,3.86-9.44,5.29-14.36,1.33-4.56,3.39-9.13,4.06-13.84.03-.24-1.22-.29-1.32,0-4.82,13.28-11.2,25.99-16.03,39.29-.07.2,1.42.39,1.57.06,2.86-6.22,6.28-12.06,9.28-18.19,3.29-6.71,3.81-14.22,6.51-21.17h-1.32c-1.14,4.46-3.63,8.71-5.35,13-2.04,5.08-3.95,10.18-6.16,15.19-4.52,10.25-9.26,20.4-13.88,30.61-.17.37,4,1.24,4.52,0h0Z"/>
        <path class="cls-1" d="m55.3,1055.47c.08,0,.08-.04,0-.04s-.08.04,0,.04h0Z"/>
        <path class="cls-1" d="m48.84,1065.27c3.37-6.85,6.66-13.75,9.76-20.73s7.38-13.62,9.85-20.95c.03-.1-.72-.2-.8,0-2.59,6.74-6.73,12.73-9.75,19.28-3.46,7.48-7.01,14.91-10.73,22.27-.16.31,1.48.5,1.66.13h0Z"/>
        <path class="cls-1" d="m62.15,1026.8c-1.68,3.14-4.08,5.91-5.55,9.14-.05.12.91.23,1.04.04,2-2.87,3.87-5.96,5.4-9.11.08-.17-.79-.26-.9-.07h0Z"/>
        <path class="cls-1" d="m15.86,1048.3c2.08-2.42,4.27-4.76,6.49-7.05,1.91-1.97,4.09-3.7,5.68-5.95.01-.02-.11-.04-.13-.01-1.57,2.25-3.73,3.98-5.62,5.95-2.21,2.31-4.26,4.79-6.52,7.05,0,0,.08.03.1,0h0Z"/>
        <path class="cls-1" d="m27.54,1035.86c-2.22,2.98-4.65,5.74-7.22,8.41-2.32,2.41-4.42,5.06-6.98,7.23-.11.1,1,.31,1.28.1,5.65-4.26,10.76-9.92,14.97-15.57.21-.28-1.72-.61-2.05-.17h0Z"/>
        <path class="cls-1" d="m11.46,1054.94c6.22-6.85,10.74-15.1,16.72-22.18.18-.22-1.36-.43-1.66-.13-7.02,6.73-11.81,15.08-18.52,22.04-.31.32,2.78,1.03,3.46.28h0Z"/>
        <path class="cls-1" d="m21.69,1036.57c-1.44,1.61-2.75,3.25-3.71,5.2-.05.1.46.16.51.04.91-1.94,2.18-3.59,3.58-5.21.04-.04-.31-.11-.38-.03h0Z"/>
        <path class="cls-1" d="m7.4,1049c5.85-5.84,10.49-12.71,15.96-18.89.05-.06-.42-.14-.51-.04-5.76,6.15-10.72,13.02-16.85,18.82-.12.11,1.11.41,1.41.11h0Z"/>
        <path class="cls-1" d="m6.06,1050.49c4.89-5.31,9.7-10.87,13.56-16.99.47-.75-3.35-.9-3.97-.32-5.61,5.21-10.34,11.29-15.61,16.82-.55.57,4.84,1.77,6.02.49h0Z"/>
        <path class="cls-1" d="m19.07,1035.55c3.11-5.13,6.06-10.3,8.31-15.87.25-.63-4.25-1.05-4.83-.19-3.43,5.12-6.66,10.36-10.01,15.53-.65,1,5.63,2.02,6.53.53h0Z"/>
        <path class="cls-1" d="m9.74,1045.34c6-8.42,12.23-16.72,18.64-24.82.5-.63-3.69-1.14-4.48-.36-7.83,7.67-14.76,15.93-21.46,24.6-.71.92,6.11,2.26,7.3.59h0Z"/>
        <path class="cls-1" d="m22.08,1041.26c4.2-7.58,8.29-15.22,12.66-22.71,4.07-6.97,8.99-13.34,13.15-20.24.23-.37-1.86-.61-2.18-.18-4.95,6.76-10.09,12.8-14.23,20.15s-8.16,15.15-12.22,22.74c-.27.51,2.48.84,2.82.23h0Z"/>
        <path class="cls-1" d="m120.28,884.43c1.05-9.79,2.1-19.39,1.84-29.26-.01-.5-2.34-.53-2.39,0-1.02,9.79-2.79,19.53-4.23,29.26-.12.82,4.66,1.17,4.78,0h0Z"/>
        <path class="cls-1" d="m126.55,825.26c-.21,12.44-1,24.74-2.51,37.06-.02.19,1,.25,1.06,0,2.94-12.37,3.9-24.39,3.57-37.06-.01-.45-2.12-.45-2.12,0h0Z"/>
        <path class="cls-1" d="m127.51,861.02c-.19-14.79,1.61-29.44,1.57-44.22,0-.36-1.7-.38-1.73,0-.93,14.82-3.18,29.33-3.29,44.22,0,.73,3.46.74,3.45,0h0Z"/>
        <path class="cls-1" d="m126.57,814.2c-.06,11.27-.31,22.67-2.11,33.81-.07.45,2.5.64,2.66,0,2.81-11.17,3.72-22.33,3.97-33.81.02-.93-4.51-.98-4.52,0h0Z"/>
        <path class="cls-1" d="m81.15,904.59c.23-2.85.29-5.7.55-8.55s1.25-5.53,1.55-8.36c.02-.22-1.12-.27-1.2,0-.78,2.85-1.73,5.39-2.06,8.36s-.42,5.7-.7,8.55c-.03.35,1.82.44,1.86,0h0Z"/>
        <path class="cls-1" d="m80.18,899.39c1.38-9.34,4.23-18.43,7.38-27.31.11-.32-2.24-.6-2.48-.1-4.28,8.82-7.78,17.76-9.68,27.41-.15.75,4.6,1.21,4.78,0h0Z"/>
        <path class="cls-1" d="m75.18,1012.53c-1.48,10.42-1.84,20.74-2.57,31.21-.02.35,1.79.43,1.86,0,1.67-10.34,1.97-20.84,3.5-31.21.07-.48-2.69-.68-2.79,0h0Z"/>
        <path class="cls-1" d="m76.61,1052.85c.17-12.06.65-24.4,1.7-36.41.04-.42-2.16-.53-2.26,0-2.23,11.93-2.92,24.29-3.16,36.41-.02.77,3.71.81,3.72,0h0Z"/>
        <path class="cls-1" d="m77.21,1006.68c1.92,11.07,4.09,22,6.71,32.92,1.27,5.29,1.98,10.68,2.82,16.04.92,5.84,2.73,11.5,3.47,17.36.02.15.68.13.66,0-.49-5.56-2.07-10.93-2.69-16.47s-.78-11.32-1.7-16.94c-1.8-10.99-4-21.9-5.69-32.92-.13-.88-3.69-.6-3.59,0h0Z"/>
        <path class="cls-1" d="m93.56,1076.91c-1.58-15.04-1.86-30.41-2.63-45.52-.02-.42-1.96-.43-1.99,0-.98,15.1-.24,30.59,2.23,45.52.09.56,2.44.44,2.39,0h0Z"/>
        <path class="cls-1" d="m89.76,1002.13c-.65,6.63,1.29,13.14,2.14,19.71s1.67,13.03,2.93,19.51c2.52,12.89,6.25,25.12,12.05,36.96.23.48,2.71.32,2.61-.1-2.98-12.67-6.88-24.84-8.91-37.74-.97-6.15-1.97-12.39-1.62-18.63.37-6.63,1.44-13.11,2.09-19.71.21-2.09-11.03-2.66-11.29,0h0Z"/>
        <path class="cls-1" d="m114.9,1094.46c-2.22-11.16-3.14-22.84-6.08-33.81,0-.03-.1-.01-.1,0,2.94,10.98,3.86,22.65,6.08,33.81,0,.02.1.02.1,0h0Z"/>
        <path class="cls-1" d="m107.57,1054.8c1.04,4.77,1.5,9.6,2.27,14.42.85,5.33,2.36,10.52,3.63,15.76,1.03,4.28,2.38,8.54,3.27,12.84.45,2.19.28,4.86,1.57,6.78.13.19,1.26.17,1.21-.05-2.09-9.36-6.69-17.95-7.58-27.64-.03-.32-1.47-.3-1.46,0,.16,10.17,5.15,18.16,7.81,27.64l1.21-.05c-1.55-2.09-1.49-5.25-2.01-7.71-.97-4.56-2.21-9.11-3.26-13.67-2.17-9.39-3.26-18.97-5.46-28.33-.07-.3-1.24-.19-1.2,0h0Z"/>
        <path class="cls-1" d="m110.13,1061.95c.12,4.38.24,8.77.67,13.13.25,2.63.13,6.23,1.91,8.35.1.12.71.06.64-.05-1.73-2.68-1.6-6.78-1.83-9.84-.29-3.86-.38-7.72-.46-11.59,0-.2-.93-.19-.93,0h0Z"/>
        <path class="cls-1" d="m111.81,1059.37c.08,0,.08-.04,0-.04s-.08.04,0,.04h0Z"/>
        <path class="cls-1" d="m112.16,1069.1c1.06,3.29,1.21,7.29,3.71,9.89.12.13,1.15.16,1.09-.04-1.11-3.8-.99-7.88-1.31-11.8,0-.09-.4-.08-.4,0,.17,3.95.25,7.86.6,11.8l1.09-.04c-1.98-2.84-2.12-6.57-3.06-9.81-.13-.46-1.8-.21-1.73,0h0Z"/>
        <path class="cls-1" d="m116.21,1062.6c1.07,8,2.14,15.96,4.89,23.59,1.86,5.15,3.32,12.11,6.79,16.45.07.09.68.11.66-.03-1.55-10.69-3.89-21.68-6.35-32.21-.07-.32-1.37-.23-1.33,0,1.05,6.48,1.94,13.01,3.45,19.41.65,2.77,1.38,5.55,2.22,8.26.28.91,1.28,2.46,1.18,3.41,0,.01-1.22-2.67-1.5-3.43-1.92-5.07-3.97-10.22-5.51-15.42-1.93-6.52-2.7-13.31-3.56-20.03-.03-.22-.95-.17-.93,0h0Z"/>
        <path class="cls-1" d="m119.92,1050.9c1.36,6.93,1.47,14.23,2.08,21.26.1,1.15,1.15,5.58-1.72,3.21-.55-.46-.67-3.51-.71-3.81-.48-3.83-.6-7.71-.8-11.56,0-.12-.54-.11-.53,0,.11,3.21.17,6.43.42,9.64.15,1.95.02,4.95,1.21,6.7.87,1.28,1.44,1.35,2.85,1.21.06,0,.32-.02.33-.13.21-4.44-.65-8.79-.97-13.21s-.45-8.9-1.35-13.32c-.04-.2-.82-.13-.8,0h0Z"/>
        <path class="cls-1" d="m124.64,1073.65c-2.65-6.84-3.69-13.7-5.62-20.69h-3.57c.85,4.47,1.49,8.94,2.26,13.41s.48,8.66.86,13.04c.09,1.05,4.75.95,4.71,0-.15-4.26-1.1-8.11-1.9-12.26-.09-.47-2.03-.46-2.12,0-.8,3.81-.53,8.34-.69,12.26h4.71c-.06-4.46-1.97-8.71-2.96-13.04-1.04-4.54-1.27-8.77-1.29-13.41,0-.76-3.35-.76-3.57,0-1.96,6.57.12,14.22,1.75,20.69.53,2.11,7.73.75,7.44,0h0Z"/>
        <path class="cls-1" d="m123,1074.95c-.45-1.3-.9-2.6-1.35-3.9-.12-.36-1.52-.21-1.46,0,.36,1.3.72,2.6,1.08,3.9.13.47,1.8.2,1.73,0h0Z"/>
        <path class="cls-1" d="m127.5,1076.91c-1.73-4.25-3.06-8.68-5.26-12.71-.81-1.49-8.58-1.6-8.87.35-.61,4.11.31,8.28.98,12.35.33,2,5.17,1.93,6.57,1.93.58,0,7.19-.41,6.57-1.93h0Z"/>
        <path class="cls-1" d="m119.49,1073c-.76-3.23-1.44-6.48-2.02-9.75-.07-.38-1.63-.28-1.59,0,.45,3.27.99,6.52,1.62,9.75.1.51,2.06.3,1.99,0h0Z"/>
        <path class="cls-1" d="m90.48,1043.74c.07.51.1,1.05.2,1.55.05.26.4,1.13.03.38s-.57-1.57-.71-2.4c-.27-1.56-.29-3.16-.34-4.74,0-.15-.67-.13-.66,0,.21,2.6.26,5.6,1.82,7.8.03.04.27.04.26-.01l-.47-2.59s-.14-.02-.13,0h0Z"/>
        <path class="cls-1" d="m84.52,1044.39v-4.55s-.1-.02-.1,0v4.55s.1.02.1,0h0Z"/>
        <path class="cls-1" d="m86.57,1048.29c.31-3.11.38-6.01-.06-9.1-.16-1.15-5.12-1.16-5.31,0-.5,3.03-.83,6.06-1.27,9.1-.17,1.15,6.48,1.62,6.64,0h0Z"/>
        <path class="cls-1" d="m76.99,1039.24l.46,11.87c.03.68,3.16.69,3.19,0l.46-11.87c.03-.86-4.15-.88-4.12,0h0Z"/>
        <path class="cls-1" d="m80.06,1029.74c-1.09,7.78-1.61,15.59-1.75,23.43-.12,6.37-1.88,16.7,2.24,21.92.83,1.05,5.07,1.04,5.89,0,4.12-5.23,2.3-15.51,2.57-21.92.34-7.86,1.06-15.67,2.34-23.43.31-1.88-10.9-2.79-11.29,0h0Z"/>
      </g>
      <g>
        <path class="cls-1" d="m145.84,392.09c1.68-17.03,1.67-33.81,1.93-50.9s-.02-34.45-1.02-51.71c-.51-8.82-1.44-17.6-2.01-26.41-.49-7.61-3.32-14.04-4.7-21.43s-.74-14.84-1.37-22.21c-.73-8.6-2.96-16.9-3.8-25.46-.01-.15-.67-.13-.66,0,.33,8.54,2.07,16.89,2.29,25.46.19,7.47.89,14.79,1.42,22.21,1.14,16.02,3.44,31.85,5.32,47.84,2.01,17.06,2.02,34.55,1.73,51.71s-1.12,33.94-3.25,50.9c-.09.74,4.02.99,4.12,0h0Z"/>
        <path class="cls-1" d="m178.67,372.76c-3.24-8.17-4.42-17.66-6.13-26.26-1.84-9.29-3.94-19.08-6.55-28.18-.54-1.88-1.25-3.72-1.71-5.62-.55-2.26-.25-4.35-.47-6.62-.47-4.7-2.6-9.1-3.66-13.65-.46-1.96.12-3.65-.05-5.61-.13-1.6-.79-3.05-.91-4.67-.15-2.01.07-3.96-.27-5.97-.46-2.68-1.44-5.27-1.59-8.01-.93-16.96-1.66-33.94-4.17-50.81-1.44-9.68-.21-19.84.01-29.58s-1.66-19.82-1.67-29.77c0-5.13-1.56-10.24-2.3-15.3-.79-5.37-1.89-10.75-2.75-16.13-.81-5.04-1.26-10.16-2.45-15.12s-2.39-10.06-2.66-14.94c0-.17-.78-.17-.8,0-.35,3.96-.05,8.5.26,12.47.35,4.42.17,8.88.54,13.28.4,4.7,1.24,9.47,1.93,14.14.72,4.95-.07,10.08,1.26,14.9,2.51,9.15,4.16,18.63,4.46,28.15.32,10.19-.52,20.38-.22,30.58.26,8.76.27,17.51.63,26.25s2.66,17.37,4.54,25.94c.9,4.08,1.1,8.25,2.08,12.36.48,1.99.66,3.81.72,5.83.09,2.85,1.13,3.16,1.94,5.73.55,1.75.07,3.72.17,5.51.12,2.08.56,4.21,1.05,6.23.53,2.15,1.4,4.23,1.87,6.38.56,2.55.29,5.11.41,7.69.47,10.37,3.78,20.37,6.45,30.33s3.3,20.85,7.11,30.46c.31.77,3.04.3,2.92,0h0Z"/>
        <path class="cls-1" d="m140.3,86.05c-.24-3.22-.65-6.43-.71-9.66,0-.03-.13-.03-.13,0,.06,3.23.47,6.44.71,9.66,0,.03.13.03.13,0h0Z"/>
        <path class="cls-1" d="m137.35,191.55c-.09-19.29,3.77-38.27,2.97-57.57-.37-8.95-.71-18-1.57-26.91-.54-5.7-.08-14.54-4.62-18.75-.44-.4-3.76-.42-3.52.14,1.22,2.86.92,6.02,1.2,9.03.36,3.79,1.39,7.53,1.85,11.31.52,4.35.05,8.54.02,12.88s.58,8.76.63,13.15c.25,19.04-3.78,37.68-4.01,56.71-.02,1.47,7.05,1.51,7.04,0h0Z"/>
        <path class="cls-1" d="m131.72,185.91c2.25,9.43,2.74,19.38,4.4,28.93.88,5.04,1.69,9.91,2.14,15.02s2.07,9.82,3.28,14.84c.16.67,2.92.67,3.05,0,2.04-10-2.75-20.57-6-29.86-3.24-9.28-2.37-19.38-4.09-28.93-.13-.72-2.89-.42-2.79,0h0Z"/>
        <path class="cls-1" d="m143.82,240.68c-.66-13.24-2.43-26.55-3.86-39.74s-2.41-26.56-4.82-39.66c-1.11-6.03-2.8-11.95-3.89-17.99-.6-3.34-.6-6.78-1.27-10.11-.54-2.7-1.66-5.25-2.49-7.87-1.8-5.61-2.6-11.48-4.05-17.18s-4.14-10.32-5.99-15.65c-.22-.65-2.53-.59-2.79,0-1.93,4.33,1.31,10.51,2.4,14.79,1.53,5.98,2.29,12.14,4.12,18.04s2.74,11.23,3.95,17.07c1.32,6.37,3.49,12.55,4.95,18.89,3,13.03,3.79,26.41,5.36,39.66s4.25,26.44,5.47,39.74c.06.66,2.95.58,2.92,0h0Z"/>
        <path class="cls-1" d="m140.71,151.28c-1.34-8.13-3.11-16.17-5.03-24.18-.83-3.44-1.65-6.88-2.67-10.28s-2.81-6.84-3-10.44h-5.34c.85,2.05,1.35,4.22,2.27,6.24.34.74,3.87.86,3.85,0-.05-2.13.02-4.24-.77-6.24-.47-1.19-5.53-.92-5.34,0,3.08,15.01,7.28,29.65,9.41,44.89.23,1.62,6.83,1.14,6.64,0h0Z"/>
        <path class="cls-1" d="m127.73,92.49c-2.98-17.07-4.59-35.11-10.31-51.54-.11-.31-1.38-.21-1.33,0,1.78,8.01,1.65,16.42,3.03,24.51,1.54,9.05,3.69,17.97,5.15,27.03.14.85,3.55.58,3.45,0h0Z"/>
        <path class="cls-1" d="m114.26,32.89c1.23,9.96.84,20.01,1.88,29.98.98,9.45,2.22,18.82,4.74,28.01.11.4,1.77.31,1.73,0-2.62-19.2-1.76-38.8-4.76-57.99-.13-.85-3.67-.65-3.59,0h0Z"/>
        <path class="cls-1" d="m123.16,96.53c.06,0,.06-.03,0-.03s-.06.03,0,.03h0Z"/>
        <path class="cls-1" d="m126.46,102.96c-.77-10.77-3.97-22.9-11.78-30.72-.43-.43-3.28-.39-2.95.24,2.41,4.46,3.27,9.71,5.07,14.43,2,5.24,3.69,10.49,4.48,16.06.17,1.19,5.25,1,5.18,0h0Z"/>
        <path class="cls-1" d="m123.4,85.85c-5.71-11.46-10.59-23.32-16.15-34.85-2.86-5.93-5.53-11.83-7.68-18.06-1.59-4.6-2.42-10.67-5.32-14.63-.23-.32-2.06-.2-1.96.08.74,2.03.79,4.31,1.36,6.42.89,3.29,1.9,6.57,2.92,9.82,1.88,5.99,4.35,11.64,6.86,17.38,5,11.46,9.56,23.06,15.22,34.22.52,1.02,5.2.54,4.74-.38h0Z"/>
        <path class="cls-1" d="m98.77,44.17c1.53,4.64,3.41,9.16,4.82,13.84,1.04,3.46,2.08,6.65,4.33,9.54.1.13.71.04.64-.05-2.35-3.28-3.15-7.02-4.14-10.85-1.1-4.21-2.61-8.3-3.78-12.48-.14-.5-1.93-.22-1.86,0h0Z"/>
        <path class="cls-1" d="m121.51,101.35c-2.76-10.28-5.7-20.24-10.26-29.88-4.92-10.39-12.74-20.02-15.49-31.33-.04-.15-.68-.12-.66,0,1.14,9.98,6.66,19.67,11.19,28.49,2.69,5.22,5.62,10.29,7.7,15.81s3.53,11.25,5.14,16.91c.17.61,2.48.34,2.39,0h0Z"/>
        <path class="cls-1" d="m91.16,25.66c.08,0,.08-.04,0-.04s-.08.04,0,.04h0Z"/>
        <path class="cls-1" d="m91.72,26.45c2.17,5.42,3.69,10.69,5.42,16.25.89,2.87,2.18,5.6,3.03,8.47.59,1.98.47,3.7,2.23,5.01.42.31,3.75.79,3.69-.15-.27-3.81-2.11-7.62-3-11.35-1.07-4.46-3.14-8.61-4.12-13.07-1.05-4.75-.73-9.65-2.56-14.24-.69-1.72-1.57-3.27-2.41-4.91-1.31-2.53-1.19-4.6-2.06-7.1h-3.74c.4,1.73.24,2.85,1.31,4.29.42.56,3.57.33,3.39-.13-.6-1.52-.22-2.83-1.03-4.3-.4-.72-3.85-.32-3.68.15,1.22,3.31.95,7.64,1.84,11.2,1.23,4.97,2.23,10.13,3.61,15.04,1.18,4.18,3.29,8.18,4.86,12.24,1.26,3.27,4.82,8.69,3.84,12.18l3.69-.15c-1.03-1.37-1.48-3.29-2.2-4.86-1.53-3.31-3.3-6.48-4.64-9.88-1.93-4.91-3.71-9.83-5.73-14.71-.19-.45-1.8-.18-1.73,0h0Z"/>
        <path class="cls-1" d="m163.34,68.14c-2.42,8.72-4.38,17.49-5.75,26.43s-1.87,17.42-3.75,25.84c-.91,4.06-2.9,7.78-3.78,11.83s-.7,8.57-1.26,12.8c-.48,3.67-.31,7.32-.7,10.93-.18,1.73-1.02,3.19-.99,5,.03,2.12.88,4.28,1.25,6.36.02.1.41.07.4,0-.31-2.07-1.1-4.25-1.06-6.36.03-1.88.84-3.19,1.15-5,.65-3.73.95-7.21,1.88-10.93,1.06-4.24,1.66-8.57,2.77-12.8,1.04-3.97,2.59-7.79,3.37-11.83,3.34-17.37,5.79-34.91,9.12-52.27.08-.43-2.48-.64-2.66,0h0Z"/>
        <path class="cls-1" d="m164.22,72.7c-3.16,19.62-6.84,39.14-9.58,58.83-1.26,9.07-3.06,17.94-5.08,26.87-.96,4.27-1.31,8.09-1.38,12.46-.08,4.8-1.15,10.11.39,14.72.15.45,1.83.44,1.99,0,3.01-8.31,1.59-17.85,4.11-26.4,2.7-9.17,3.7-18.2,4.92-27.66,2.53-19.61,4.85-39.24,7.55-58.83.07-.51-2.81-.71-2.92,0h0Z"/>
        <path class="cls-1" d="m161.61,358.89c.48-10.21.3-20.38-1.37-30.49-1.66-10.03-4.08-19.91-5.73-29.94-.21-1.27-5.74-1.26-5.84,0-.85,10.08.63,20,2.17,29.94s2.57,20.27,2.81,30.49c.04,1.67,7.89,1.73,7.97,0h0Z"/>
        <path class="cls-1" d="m160.45,370.29c.03-11.44.7-22.86.75-34.29.02-5.47-.06-10.95-.05-16.42s.14-11.1-1.88-16.56c-.43-1.18-4.89-1.18-5.31,0-3.82,10.65-4.05,21.8-4.65,32.98-.61,11.4-.66,22.87-.55,34.29.03,2.47,11.68,2.5,11.69,0h0Z"/>
        <path class="cls-1" d="m157.17,373.71c.89-9.28,1.09-18.58,1.03-27.9s.1-18.9-2.63-27.97c-.4-1.32-5.59-1.32-5.98,0-2.7,9.14-1.77,18.59-1.43,27.97s.44,18.61-.17,27.9c-.11,1.77,8.96,2.11,9.16,0h0Z"/>
        <path class="cls-1" d="m156.96,380.55c.87-9.87,1.61-19.77,2.2-29.66s1.09-20.03-.76-29.63c-.25-1.3-5.14-1.14-5.58,0-6.98,18.35-5.32,39.99-6.62,59.29-.14,2.07,10.54,2.48,10.76,0h0Z"/>
        <path class="cls-1" d="m156.21,377.13c1.73-16.39,4.09-33.79,1.37-50.17-.3-1.79-7.48-1.7-7.97,0-4.63,16.13-4.68,33.57-6.68,50.17-.29,2.39,12.95,3.18,13.28,0h0Z"/>
        <path class="cls-1" d="m156.97,371.43c.65-12.38,1.82-24.73,1.62-37.14s-2.48-25.37-3.96-38.11c-.15-1.33-6.05-1.3-6.11,0-.55,12.73.3,25.39.28,38.11s-.5,24.76-.6,37.14c-.01,1.8,8.66,1.94,8.77,0h0Z"/>
        <path class="cls-1" d="m155.08,356.61c2.16-19.65,3.65-41.1-1.05-60.43-.37-1.52-6.54-1.52-6.91,0-4.69,19.52-1.53,40.49-3.07,60.43-.16,2.09,10.74,2.56,11.02,0h0Z"/>
        <path class="cls-1" d="m156.79,344.06c.2-8.76-.1-17.51-.9-26.24-.74-8.09-3.04-15.89-3.92-23.93-.11-1.04-4.55-1.03-4.78,0-1.8,7.98.45,15.96,1.45,23.93,1.09,8.71,1.69,17.46,1.78,26.24.01,1.34,6.34,1.38,6.38,0h0Z"/>
        <path class="cls-1" d="m166.22,362.31c-.4-18.88-2.97-37.31-6.15-55.87-.26-1.5-6.77-1.49-6.91,0-1.68,18.77,1.51,37.12,1.9,55.87.05,2.4,11.21,2.34,11.16,0h0Z"/>
        <path class="cls-1" d="m170.03,356.61c-1.68-11.28-3.7-22.51-5.98-33.69-1.95-9.58-3.95-19.92-9.38-28.21-.82-1.26-8.53-1.38-8.35.33.49,4.51.27,9.05.49,13.58.26,5.13,1.4,10.25,2.45,15.26,2.27,10.86,4.3,21.77,6.02,32.74.56,3.55,15.13,2.58,14.74,0h0Z"/>
        <path class="cls-1" d="m175.4,362.31c-3.29-15.02-7.22-30.21-13.06-44.47-.78-1.91-9.54-2.01-9.43,0,.83,14.92,3.64,29.94,7.08,44.47.91,3.84,15.93,2.39,15.41,0h0Z"/>
        <path class="cls-1" d="m175.77,364.59c-1.58-7.64-2.98-15.29-5.09-22.8-.36-1.3-6.02-1.23-5.98,0,.24,7.72,1.5,15.23,2.96,22.8.39,2.03,8.37,1.28,8.1,0h0Z"/>
        <path class="cls-1" d="m181.63,365.73c-4.05-11.11-8.06-22.36-14.62-32.28-.94-1.43-9.26-1.16-8.87.35,2.73,10.61,5.06,21.29,7.69,31.93,1.09,4.41,16.43,1.71,15.8,0h0Z"/>
        <path class="cls-1" d="m181.77,365.73c-3.28-7.98-6.42-16-9.77-23.94-.89-2.11-10.66-2.36-10.62,0,.11,8.25,2.2,16.02,4.32,23.94,1.24,4.62,16.69,1.5,16.07,0h0Z"/>
        <path class="cls-1" d="m188.97,370.29c-5.16-12.4-10.28-24.72-17.75-35.96-1.63-2.45-16.05-2.07-15.39.61,2.9,11.84,4.26,23.92,8.7,35.35,2.57,6.59,25.42,2.35,24.44,0h0Z"/>
        <path class="cls-1" d="m173.47,346.34c-2.47-10.54-5.55-21.56-10.74-31.12-.74-1.35-8.32-1.45-8.35.33-.16,10.44,4.86,20.84,7.53,30.79.77,2.88,11.97,1.75,11.55,0h0Z"/>
        <path class="cls-1" d="m162.89,322.4c-1.42-7.93-2.72-15.9-4.3-23.8-1.02-5.1-1.44-11.81-5.96-15.14-.45-.33-4.39-.8-4.17.17,1.17,5.25,1.67,10.62,2.83,15.88,1.68,7.63,3.41,15.25,5.1,22.88.35,1.58,6.7,1.09,6.51,0h0Z"/>
        <path class="cls-1" d="m165.63,322.4c-.9-9.09-2.06-18.14-3.87-27.1-1.63-8.05-2.48-18.82-9.05-24.47-1.02-.88-5.44-1.33-6.28,0-2.12,3.36-.38,8.07.52,11.72,1.05,4.28,2.41,8.48,3.49,12.75,2.26,8.93,3.87,17.99,5.22,27.1.34,2.32,10.15,1.87,9.96,0h0Z"/>
        <path class="cls-1" d="m163.02,317.84c-1.75-15.12-1.55-31.1-9.46-44.63-.39-.67-4.19-.56-4.04.16,3.02,14.75,4.7,29.57,6.73,44.47.22,1.59,6.92,1.24,6.77,0h0Z"/>
        <path class="cls-1" d="m161.24,307.58c-1.18-10.23-2.38-20.51-4.14-30.66-1.06-6.11-.98-12.76-6.56-16.6-.72-.49-6.79-.82-6.43.51.7,2.64-.06,5.94-.29,8.63-.27,3.17-.26,6.19.04,9.38.91,9.63,2.79,19.17,4.11,28.74.43,3.13,13.56,2.44,13.28,0h0Z"/>
        <path class="cls-1" d="m156.76,301.88c-.21-8.73-1.34-17.39-1.98-26.09-.54-7.36-.16-15.83-4.71-22.08-.94-1.29-6.51-1.29-7.17.28-1.49,3.53-.59,7.06-.28,10.76.33,4.01.58,8.01,1.03,12.01.94,8.38,2.27,16.7,2.76,25.12.13,2.28,10.41,2.13,10.36,0h0Z"/>
        <path class="cls-1" d="m157.78,316.7c-.94-10.89,0-21.71-1.69-32.56s-3.47-21.93-6.96-32.43c-.5-1.51-6.88-1.63-7.17,0-1.87,10.6,1.64,21.96,3.34,32.43,1.76,10.82,2.26,21.77,4.11,32.56.33,1.93,8.5,1.59,8.37,0h0Z"/>
        <path class="cls-1" d="m155.82,314.42c.14-6.11.45-12.23.04-18.34s-1.43-11.6-2.07-17.42-.44-11.45-1.31-17.11c-.62-4.05-1.11-8.1-4.85-10.37-.81-.49-6.8-1.08-6.68.53.29,3.91.95,7.81,1.17,11.73.32,5.69.06,11.38.61,17.06.51,5.22,1.53,10.36,2.05,15.58.6,6.09.49,12.22.54,18.34.02,2.2,10.44,2.27,10.49,0h0Z"/>
        <path class="cls-1" d="m164.42,299.6c-.89-6.23-2.12-12.17-3.74-18.24-.35-1.3-5.99-1.34-6.11,0-.54,6.22-.46,12.05.29,18.24.28,2.29,9.81,1.7,9.56,0h0Z"/>
        <path class="cls-1" d="m165.95,312.14c1-11.94-.67-23.85-6.24-34.54-.72-1.38-8.22-1.47-8.35.33-.81,11.47,2.61,22.7,1.97,34.21-.14,2.46,12.38,2.89,12.62,0h0Z"/>
        <path class="cls-1" d="m162.4,284.77c-1.28-6.77-2.4-13.57-3.38-20.38-.42-2.91-.69-5.85-1.35-8.71-.86-3.7-2.52-6.23-4.04-9.67-.74-1.69-7.53-1.89-8.1,0-1.68,5.57-.03,12.77,1.03,18.38,1.29,6.83,2.71,13.62,4.29,20.38.66,2.82,11.91,1.9,11.55,0h0Z"/>
        <path class="cls-1" d="m154.3,258.55c0-9.04-2.04-17.83-2.51-26.82-.23-4.42-.53-8.16-1.51-12.46-.88-3.84-.17-7.56-.41-11.43-.54-8.73-2.73-17.26-3.54-25.94-.71-7.55-.59-15.81-4.88-22.36-.41-.62-4.19-.63-4.06.16,1.06,6.64,2.09,12.93,2.13,19.69.05,7.31-.29,14.61.48,21.89.73,6.87,1.68,13.71,3.09,20.47,1.54,7.36,3.69,14.51,4.23,22l3.58-.14c-1.29-1.68.19-8.06.04-10.15-.4-5.46-1.41-10.88-2.16-16.3-1.4-10.16-2.27-20.78-4.47-30.78-.28-1.27-5.74-1.17-5.72,0,.25,13.51,2.35,27.23,3.8,40.65.86,7.95,1.54,16.01,2.93,23.89.28,1.56,1.02,8.15,3.29,8.33.19.02,1.05.07,1.12-.25,1.32-6.12,2.2-11.84,1.87-18.13s-.96-12.7-1.43-19.04c-.91-12.39-.35-25.32-3.64-37.39-.25-.91-4.07-.74-3.98,0,.7,6.04-.04,12.02.06,18.08.11,6.46.71,12.9,1.4,19.32,1.28,11.97,6.12,25.13,3.95,37.18l1.33-.22c.05,0-.61-10.27-.74-11.48-.82-7.93-1.44-15.88-2.02-23.83-.9-12.26-2.39-24.78-2.22-37.09h-5.72c.95,5.06.94,10.2,1.67,15.29.83,5.8,2.1,11.54,3.1,17.31.94,5.43,2.07,10.81,2.58,16.31.22,2.31-.38,6.87,1.45,8.6.43.4,3.81.48,3.58-.14-2.53-6.83-3.27-13.86-4.09-21.08s-1.76-14.25-2.43-21.39-.93-13.95-1.36-20.94c-.4-6.43-2.85-14.32-1.57-20.64h-4.14c1.14,3.64.58,7.9.72,11.7.15,4.07.25,8.18.6,12.23.73,8.36,2.47,16.61,2.68,25.04.11,4.18-.25,7.89.87,11.99,1.01,3.69,1.26,7.28,1.71,11.08,1.07,8.94,2.82,17.79,2.88,26.82.01,1.57,7.44,1.59,7.44,0h0Z"/>
        <path class="cls-1" d="m148.56,244.88c.06,0,.06-.03,0-.03s-.06.03,0,.03h0Z"/>
        <path class="cls-1" d="m153.52,233.46c-2.02-11.61-2.39-23.28-.76-34.95,1.41-10.06,4.42-23.35-3.19-31.51-1.36-1.45-6.7-1.41-8.07,0-3.53,3.63-2.07,9.18-2.2,13.87-.16,5.91-1.33,11.74-1.5,17.64-.35,11.72-.3,23.37,1.77,34.95.61,3.41,14.35,2.34,13.95,0h0Z"/>
        <path class="cls-1" d="m142.24,209.28c-.71,7.14.22,14.2,3.64,20.61.85,1.6,7.36,1.3,8.09-.32,2.77-6.17.62-13.84-.04-20.29-.26-2.52-11.44-2.53-11.69,0h0Z"/>
        <path class="cls-1" d="m152.6,228.14c-.16-9.22.23-19.1-3.49-27.72-.47-1.09-5.58-1.26-5.58,0-.01,9.28,1.34,18.55,2.56,27.72.19,1.45,6.53,1.33,6.51,0h0Z"/>
        <path class="cls-1" d="m144.74,200.13c-.12-4.05.86-10.86-1.37-14.47-.91-1.48-8.46-1.63-8.87.35-1.45,7.07,2.19,15.27,2.72,22.41h7.56c-1.44-8,.1-17.41-3.48-24.78-.39-.8-4.57-.83-4.7.19-1.04,8.16-.23,16.44.61,24.59.17,1.65,7.53,1.59,7.56,0,.09-3.77-.25-7.46-.61-11.2s-.14-7.54-.64-11.21l-8.87.35c1.18,1.23,1.22,4.01,1.49,5.62.45,2.7.79,5.42,1.15,8.14.22,1.67,7.48,1.5,7.44,0h0Z"/>
        <path class="cls-1" d="m142.7,184.98c2.96-7.01,3.16-14.92,3.45-22.43.24-6.1-.43-11.36-7.66-11.36s-6.02,5.9-5.64,11.36c.49,7.19,1.54,15.29.42,22.43-.28,1.77,8.59,1.99,9.43,0h0Z"/>
        <path class="cls-1" d="m143.67,166.98c.11-6.73-.27-13.75-1.94-20.29-.06-.22-.95-.17-.93,0,.92,6.81,2.37,13.39,2.6,20.29,0,.06.26.06.27,0h0Z"/>
        <path class="cls-1" d="m153.58,165.83c-.46-9.55-1.15-19.7-7.57-27.27-1.36-1.6-9.42-2-10.17.4-2.81,8.98.91,17.91,2.2,26.87.51,3.52,15.69,3.08,15.54,0h0Z"/>
        <path class="cls-1" d="m135.94,116.39c.58,4.46.72,9.09,1.89,13.44,1.25,4.69,2.58,9.29,3.78,13.99.07.29,1.34.27,1.33,0-.34-9.15-.22-18.29-.89-27.44-.11-1.44-6.26-1.12-6.11,0h0Z"/>
        <path class="cls-1" d="m145.21,141.83c-.15-4.24-.23-8.64-.96-12.83s-2.42-7.81-3.62-11.75c-.15-.48-2.2-.51-2.26,0-.9,8.1,1.35,16.72,2.99,24.58.18.86,3.88.78,3.85,0h0Z"/>
        <path class="cls-1" d="m138.11,117.53c2.05,9.3,3.84,18.55,5.02,28.01.04.3,1.34.26,1.33,0-.44-9.47-1.92-18.68-3.56-28.01-.12-.71-2.88-.43-2.79,0h0Z"/>
        <path class="cls-1" d="m147.82,140.97c-.92-6.75-2.15-12.68-5.38-18.75-.4-.74-4.31-.79-4.43.18-.88,6.6,1.07,12.3,2.78,18.58.44,1.63,7.21,1.27,7.04,0h0Z"/>
        <path class="cls-1" d="m137.47,128.68c-.1,5.83-.74,11.82,1.2,17.43.23.66,3.14.71,3.19,0,.36-5.9-.46-11.6-1.33-17.43-.1-.67-3.04-.64-3.05,0h0Z"/>
        <path class="cls-1" d="m144.64,231.86c-2.88-17.6-9.98-34.06-16.75-50.35-6.21-14.93-14.93-28.61-21.89-43.12-.01-.03-.14,0-.13,0,2.87,6.46,6.61,12.61,9.65,19.01,2.1,4.41,3.31,9.12,5.42,13.54,1.79,3.75,3.52,7.5,5.17,11.31,6.8,15.72,12.39,32.58,14.82,49.6.13.9,3.82.64,3.72,0h0Z"/>
        <path class="cls-1" d="m101.47,129.8c-.52-.9-1.2-1.79-1.38-2.83-.02-.09-.41-.08-.4,0,.1,1.04.7,1.96,1.14,2.88.07.15.7.06.64-.05h0Z"/>
        <path class="cls-1" d="m135.41,188.93c-2.63-4.85-5.43-9.95-8.46-14.56-1.35-2.05-2.78-4.06-4.43-5.89-2.34-2.6-3.86-5.87-4.97-9.22-.04-.13-.55-.07-.53,0,1.57,5.31,5.22,9.15,7.79,13.93,1.33,2.47,2.27,5.13,3.67,7.56,1.65,2.88,3.83,5.42,5.51,8.28.17.3,1.55.15,1.41-.11h0Z"/>
        <path class="cls-1" d="m126.53,172.87c-1.31-2.67-2.99-5.08-4.36-7.7-1.24-2.37-1.78-4.82-3.31-7.03-2-2.89-3.8-5.58-5.53-8.67-1.88-3.37-3.82-6.92-5.85-10.22-1.28-2.07-2.75-4.01-3.96-6.13-1.11-1.94-1.68-4.12-3.05-5.89-.12-.15-.7,0-.64.05,1.83,1.93,2.06,4.79,3.12,7.17.81,1.82,2.08,3.2,3.13,4.91,2.23,3.61,4.26,7.39,6.12,11.15,1.43,2.87,3,5.71,4.19,8.75,1.96,5.03,4.76,9.09,7.33,13.83.32.59,3.09.33,2.82-.23h0Z"/>
        <path class="cls-1" d="m102.29,130.04c-.63-.86-1.21-1.77-1.96-2.54-.13-.14-1-.11-.9.07.46.79.71,1.68,1.03,2.54.12.32.8.28,1.05.27.08,0,.97-.07.77-.34h0Z"/>
        <path class="cls-1" d="m100.93,129.82c1.64,3.72,3.92,7.1,6.39,10.3.04.05.28.02.26-.02-2.08-3.3-4.24-6.65-5.72-10.28-.1-.25-.97-.08-.93,0h0Z"/>
        <path class="cls-1" d="m138.68,200.7c-4.5-10.16-9.8-20.11-15.69-29.53-.23-.36-2.39-.39-2.35.09.2,2.06,1.51,3.91,2.39,5.75,1.35,2.81,2.69,5.69,3.98,8.53,2.29,5.06,4.72,9.97,6.75,15.15.53,1.35,5.1.43,4.91,0h0Z"/>
        <path class="cls-1" d="m136.86,196.7c-1.95-5.48-4.24-10.46-6.59-15.78-.95-2.14-1.85-4.31-2.97-6.36-1.31-2.42-2.82-3.46-4.69-5.4-.35-.36-2.45-.54-2.61.1-.43,1.82.23,2.54,1.15,3.95,1.7,2.58,3.25,5.17,4.73,7.88,2.86,5.24,5.73,10.29,8.23,15.72.26.57,2.86.23,2.74-.11h0Z"/>
        <path class="cls-1" d="m124.95,171.71c-.95-1.52-1.85-3.07-2.63-4.69-.29-.59-.53-1.23-.86-1.8-.41-.72-1-1.29-1.38-2.04-.19-.38-1.97-.36-2.09.08-.4,1.5.25,2.44.9,3.75.85,1.71,1.82,3.35,2.85,4.95.44.68,3.53.27,3.2-.26h0Z"/>
        <path class="cls-1" d="m141.23,203.85c-1.1-3.77-2.05-7.57-2.92-11.39-.47-2.07-7.54-.73-7.26,0,1.97,5.1,3.61,10.3,5.54,15.41.25.65,2.94.47,2.84,0-1.22-5.6-.67-10.92-3.63-16.13-.25-.45-2.81-.42-2.74.11.75,5.28,4.5,10.59,3.53,16.02h2.84c-.03-2.89-.07-5.72-.46-8.59-.31-2.29-.38-4.61-.66-6.83h-7.26c1.3,3.84,2.68,7.64,4.2,11.39.58,1.42,6.23.86,5.98,0h0Z"/>
        <path class="cls-1" d="m149.04,248.72c.13-6.95-1.96-14.02-1.37-20.88.16-1.92-9.83-2.22-9.83,0,0,4.65,1.91,9.57,2.69,14.17.73,4.28.8,8.62,1.49,12.91l6.99-.28c-2.1-4.56-1.48-10-3.83-14.45-.33-.62-3.81-.65-3.8.15.04,4.3,1.08,8.6,1.38,12.9h3.03c-.69-3.32.44-6.83-.42-10.01-.3-1.09-4.97-1.13-5.11,0-.44,3.55.28,7.93.9,11.45h4.79c-2-8.74-2.85-18.65-3.18-27.61h-5.55c.58,4.74.48,9.5,1.13,14.25.44,3.2.01,8.16,1.71,10.94.6.98,5.74.58,5.48-.22-.45-1.39-1.08-2.03-1.58-3.53l-3.07.24.32.2c.32.2,3.06.25,2.85-.23l-.1-.22c-.33-.73-2.97-.73-3.29,0-.55,1.25-.66,2.17-.72,3.53h5.58c-1.46-3.38-1.5-7.93-1.93-11.56-.53-4.47-.35-8.95-.83-13.41-.13-1.24-5.58-1.13-5.55,0,.11,4.75,1.19,9.38,1.88,14.07s.94,9.1,2.07,13.54c.26,1.04,4.59,1.06,4.79,0,.71-3.83-.39-7.59-.58-11.45h-5.11c1.39,3.07,2.09,6.7,2.49,10.01.08.67,3.04.62,3.03,0-.06-4.23-1.14-8.73-.53-12.9h-3.87c1.37,3.83,1.72,10.74.65,14.58-.27.97,6.94,1.92,7.12,0,.8-8.82-.43-18.32-1.47-27.08h-9.83c2.26,6.49,3.06,14.02,3.23,20.88.04,1.69,7.94,1.71,7.97,0h0Z"/>
        <path class="cls-1" d="m10.28,140.53c.08,0,.08-.04,0-.04s-.08.04,0,.04h0Z"/>
        <path class="cls-1" d="m15.16,147.07c.08,0,.08-.04,0-.04s-.08.04,0,.04h0Z"/>
        <path class="cls-1" d="m137.37,157.49c-1.81-6.61-2.94-13.29-4.98-19.85-.12-.4-1.78-.3-1.73,0,1.17,6.63,2.33,13.34,4.05,19.85.18.68,2.76.37,2.66,0h0Z"/>
        <path class="cls-1" d="m139.3,160.77c-1.43-7.39-1.05-19.56-7.33-24.75-.85-.7-4.12-1.01-4.87,0-2.35,3.18-.04,7.43.85,10.86,1.21,4.66,1.82,9.3,3.38,13.9.62,1.84,8.23,1.35,7.97,0h0Z"/>
        <path class="cls-1" d="m134.18,145.01c-.63-4.07-1.62-8.04-2.4-12.08-.73-3.75-.88-7.48-2.67-10.91-.14-.28-1.69-.29-1.7.07-.02,4,2.07,7.81,3.11,11.65s1.74,7.46,2.33,11.27c.05.32,1.36.23,1.33,0h0Z"/>
        <path class="cls-1" d="m137.64,141.53c-.91-8.41-2.4-18.23-7.34-25.19-.65-.92-5.27-1.06-5.61.22-2.15,8.04,3.41,17.34,5.77,24.97.49,1.6,7.32,1.37,7.17,0h0Z"/>
        <path class="cls-1" d="m133.57,136.62c-1-4.36-2.09-8.79-2.65-13.23-.46-3.66-.3-6.79-3.1-9.48-.67-.65-4.69-1.06-4.96.2-.67,3.13,1.6,7.11,2.47,10.12,1.24,4.28,2.72,8.31,4.52,12.39.36.81,3.86.63,3.72,0h0Z"/>
        <path class="cls-1" d="m134,140.92c-1.37-4.9-1.23-10.22-2.07-15.24-.9-5.39-2.75-9.48-6.01-13.86-.7-.94-6.05-1.21-6.26.25-1.5,10.44,6.35,19.27,9.02,28.85.38,1.37,5.52.73,5.31,0h0Z"/>
        <path class="cls-1" d="m128.21,118c-1.37-4.67-2.6-9.73-5.27-13.84-.31-.47-3.12-.57-3.13.12-.08,5.03,2.61,9.23,4.55,13.71.39.9,4.02.56,3.85,0h0Z"/>
        <path class="cls-1" d="m130.49,116.15c-.22-2.02-.3-4.24-1-6.16-.84-2.31-2.2-4.18-3.65-6.13-.58-.78-5.25-1.03-5.35.21-.16,2.15.02,3.8.79,5.83s2.02,4.16,2.97,6.24c.56,1.25,6.38,1.29,6.24,0h0Z"/>
        <path class="cls-1" d="m132.31,113.7c-1.85-6.12-3.51-12.01-7.37-17.21-.64-.87-5.54-1.11-5.74.23-.44,2.92-.46,5.76.55,8.55s2.29,5.62,3.39,8.44c.87,2.23,9.55,1.26,9.16,0h0Z"/>
        <path class="cls-1" d="m125.2,106.13c-.83-2.73-1.89-5.31-3.45-7.72-.38-.58-3.52-.68-3.65.15-.4,2.56.21,5.05.59,7.57.27,1.76,6.76.85,6.51,0h0Z"/>
        <path class="cls-1" d="m122.65,100.19c-1.14-3.63-2.32-7.25-3.54-10.85-.09-.26-1.22-.23-1.2,0,.4,3.71,1.65,7.25,2.61,10.85.15.57,2.21.27,2.12,0h0Z"/>
        <path class="cls-1" d="m123.17,97.12c-.77-3.14-1.76-6.08-2.94-9.08-1.07-2.72-1.7-5.74-3.17-8.25-.35-.59-3.57-.66-3.65.15-.29,2.84,1.16,6,2.07,8.67.99,2.92,2.26,5.68,3.45,8.52.4.96,4.42.68,4.25,0h0Z"/>
        <path class="cls-1" d="m125.59,98.55c-1.32-6.35-2.85-12.71-7.35-17.59-.6-.66-4.8-1.02-4.96.2-.36,2.86-.44,5.54.62,8.25,1.18,3.03,2.37,6.03,3.33,9.15.61,2,8.65,1.36,8.37,0h0Z"/>
        <path class="cls-1" d="m118.87,82.18c-2.03-5.19-4.07-10.58-6.68-15.51-1.5-2.84-2.97-5.56-4.32-8.49-.79-1.72-1.26-2.94-2.88-3.92-.64-.39-3.01-.6-3.52.13-2.15,3.09,1.97,8.53,3.39,11.38,2.81,5.65,6.1,11.02,9.04,16.59.54,1.02,5.18.38,4.96-.2h0Z"/>
        <path class="cls-1" d="m102.39,55.17c1.1,2.66,2.13,5.35,3.19,8.03.98,2.48,1.65,4.36,3.84,6.05.47.36,4.29.87,4.17-.17-.25-2.29-1.19-4.09-2.26-6.12-1.41-2.67-2.79-5.34-4.25-7.99-.53-.97-4.91-.33-4.7.19h0Z"/>
        <path class="cls-1" d="m118.22,67.52c1.79,8.52,2.49,17.37,5.23,25.64.07.22,1.05.24,1.06,0,.47-8.67-2.26-17.29-4.56-25.64-.12-.42-1.78-.28-1.73,0h0Z"/>
        <path class="cls-1" d="m124.39,96.88c.06,0,.06-.03,0-.03s-.06.03,0,.03h0Z"/>
        <path class="cls-1" d="m126.73,105.18c-.56-11.96-2.62-24.92-6.86-36.04-.19-.49-2.31-.55-2.39,0-1.77,11.8,3.82,24.61,6.2,36.04.14.69,3.08.61,3.05,0h0Z"/>
        <path class="cls-1" d="m116.36,63.6c.88,6.2,2.39,12.22,3.8,18.31,1.19,5.17,1.97,10.45,4.29,15.26.16.33,1.97.32,1.96-.08-.15-5.33-.22-10.71-.87-16.02-.72-5.88-2.75-11.62-3.73-17.48-.22-1.3-5.58-.96-5.45,0h0Z"/>
        <path class="cls-1" d="m152.52,159.01c2.1-11.15,3.54-22.39,6.53-33.25.2-.74-4.7-1.25-5.18,0-3.69,9.75-7.86,19.77-8.19,30.32h5.03c.84-3.53,2.46-6.82,2.53-10.51.01-.7-3.13-.71-3.39-.13-1.58,3.43-1.79,7.31-4.08,10.45-.62.85,4.07,1.02,4.86.39,3-2.38,2.54-9.2,3.43-12.78,1.49-5.97,3.41-11.81,5-17.74h-5.18c-1.78,11.32-5.2,22.19-8.26,33.25-.25.92,6.56,1.86,6.91,0h0Z"/>
        <path class="cls-1" d="m157.81,125.2c.27-2.32.62-4.62.35-6.95-.07-.58-2.53-.58-2.66,0-.5,2.3-.84,4.63-1.28,6.95-.11.58,3.48.9,3.59,0h0Z"/>
        <path class="cls-1" d="m155.96,122.43c-.24.91-.38,1.83-.41,2.78,0,.02.1.02.1,0,.03-.94.16-1.87.41-2.78,0-.01-.09-.03-.1,0h0Z"/>
        <path class="cls-1" d="m145.53,379.32c-.27,2.26-.22,4.38.12,6.63.08.49,1.85.4,2.09.08,1.38-1.87,1.35-4.52,1.77-6.71.12-.64-3.86-1.01-3.98,0h0Z"/>
        <path class="cls-1" d="m147.77,388.01c.75-3.64,1.39-7.26,1.48-10.97.01-.58-2.44-.53-2.66,0-1.47,3.54-1.33,7.21-1.75,10.97-.06.53,2.78.69,2.92,0h0Z"/>
        <path class="cls-1" d="m147.86,375.89c-.28,2.29-.64,4.57-1.01,6.86,0,.02.13.03.13,0,.37-2.28.73-4.56,1.01-6.86,0-.02-.13-.03-.13,0h0Z"/>
        <path class="cls-1" d="m149.43,383.44c.28-2.78.84-5.69.28-8.46-.21-1.04-4.23-.98-4.7-.19-1.57,2.64-1.96,5.68-2.63,8.64-.24,1.07,6.85,1.82,7.04,0h0Z"/>
        <path class="cls-1" d="m158.45,377.95c.11-2.97,0-5.92-.04-8.89-.03-2.62.44-5.45.05-8.02-.06-.39-1.6-.36-1.73,0-.87,2.57-.77,5.35-1.22,8.02-.5,2.97-.94,5.94-1.58,8.89-.16.72,4.47,1.15,4.52,0h0Z"/>
        <path class="cls-1" d="m161.78,369.04c.34-3.19.47-6.4.74-9.6,0-.02-.13-.03-.13,0-.32,3.2-.49,6.41-.87,9.6,0,.05.26.06.27,0h0Z"/>
        <path class="cls-1" d="m162.2,357.16c-.16,3.54-.79,6.94-.72,10.49.05,2.55-.14,5.25-.37,7.79-.01.12.64.16.66,0,.43-2.53.83-5.23.98-7.79.2-3.51-.61-6.96-.45-10.49,0-.02-.1-.02-.1,0h0Z"/>
        <path class="cls-1" d="m162.24,374.75c.67-3.25.72-6.32.33-9.6-.04-.32-1.43-.32-1.46,0-.34,3.23.13,6.37-.07,9.6-.01.23,1.14.27,1.2,0h0Z"/>
        <path class="cls-1" d="m157.51,358.07c.25,3.41.82,6.84.96,10.25.04.84-.03,1.71.03,2.54.02.29.4,1.54.27,1.82h2.19c-.57-1.6.25-4,.21-5.82-.04-2.16-.49-3.99-1.02-6.06-.1-.4-1.81-.41-1.86,0-.25,2.1-.16,3.96.06,6.06.17,1.65.83,4.28.41,5.82-.06.23.73.3.8.31,2.09.25,2.73-1.14,2.84-3,.24-3.98.21-7.95.54-11.93.09-1.12-5.53-1.16-5.45,0h0Z"/>
        <path class="cls-1" d="m163.71,364.7c-.18-1.14-.35-2.28-.49-3.42s-.16-2.37-.58-3.43c-.13-.33-1.5-.37-1.59,0-.28,1.1-.11,2.31-.06,3.43s.12,2.28.2,3.42c.05.61,2.6.44,2.52,0h0Z"/>
        <path class="cls-1" d="m163.41,361.27c-.04,1.14-.12,2.34.02,3.48.13,1.04.67,1.91.91,2.92.08.33,1.37.32,1.46,0,.6-2.04.57-4.3.93-6.4.1-.57-3.29-.81-3.32,0h0Z"/>
        <path class="cls-1" d="m166.76,373.38c-.47-2.63-1.31-5.16-1.72-7.81-.37-2.4-1.28-4.85-1.31-7.27,0-.03-.13-.03-.13,0,.02,2.43.94,4.87,1.31,7.27.4,2.65,1.24,5.18,1.72,7.81,0,.03.14.02.13,0h0Z"/>
        <path class="cls-1" d="m168.3,380.69c-1.96-7.16-2.74-14.44-4.3-21.68-.03-.15-.66-.15-.7,0-1.25,5.13.73,14.36,5.04,17.86.17.14,1.65.28,1.57-.06-.63-2.61-1.9-4.63-2.86-7.11-.36-.93-2.06-10.27-3.56-9.21-.64.45,1.47,9.39,1.62,10.17.65,3.43,1.72,6.72,2.79,10.04.03.1.41.06.4,0h0Z"/>
        <path class="cls-1" d="m169.91,376.12c-1.49-3.32-2.64-6.62-3.69-10.1-.75-2.52-1.1-5.43-2.37-7.74-.04-.08-.41-.03-.39.02.94,2.56,1.16,5.6,1.83,8.27.83,3.28,1.77,6.4,3.02,9.55.17.44,1.65.14,1.59,0h0Z"/>
        <path class="cls-1" d="m181.12,374.83c-1.54-2.61-3.28-5.09-4.84-7.69-1.46-2.44-2.73-5.31-4.58-7.47-.15-.17-1.28-.26-1.3.05-.19,2.73,1.28,5.29,2.33,7.71,1.23,2.83,2.66,5.6,4.11,8.32.18.34,2.03.25,1.96-.08-.59-2.65-1.42-5.42-2.7-7.83s-4.05-5.39-4.37-8.12h-1.33c1.03,2.3.95,4.94,2.02,7.24,1.33,2.86,3.33,5.43,4.87,8.18.48.85,4.23.35,3.84-.31h0Z"/>
        <path class="cls-1" d="m179.81,381.97c-1.77-3.82-3.59-7.57-5.19-11.47-1.31-3.19-2.83-6.64-5.08-9.3-.22-.27-1.79-.15-1.7.07,1.53,3.35,1.39,7.25,2.95,10.6,1.71,3.66,4.41,6.91,6.59,10.3.3.47,2.67.31,2.43-.2h0Z"/>
        <path class="cls-1" d="m165.64,360.81c.87,2.83,2.1,5.54,2.98,8.36.76,2.44,1.3,4.64,2.4,6.99.09.19,1.08.14,1.04-.04-.99-5.08-2.06-10.17-2.71-15.31-.13-1.01-3.87-.48-3.72,0h0Z"/>
        <path class="cls-1" d="m174.52,380.52c-3.13-6.78-6.63-13.57-9.42-20.49h-1.32c.79,2.39.31,4.94,1.37,7.26s2.65,4.38,3.8,6.61c.15.28,1.63.19,1.57-.06-1.21-5.03-3.41-9.13-5.41-13.81-.11-.27-1.34-.28-1.32,0,.55,7.15,3.9,13.99,6.31,20.67.44,1.21,4.82.66,4.43-.18h0Z"/>
        <path class="cls-1" d="m170.93,376.14c.08,0,.08-.04,0-.04s-.08.04,0,.04h0Z"/>
        <path class="cls-1" d="m174.18,379.48c-1.31-2.67-2.51-5.39-3.77-8.08-1.03-2.2-2.37-4.24-3.32-6.48-.08-.19-.83-.12-.8,0,1.45,4.99,4.06,9.89,6.19,14.63.2.45,1.85.24,1.7-.07h0Z"/>
        <path class="cls-1" d="m168.04,366.07c.45,1.09.98,2.36,1.77,3.24.12.13,1.09.17,1.04-.04-.12-.59-.5-1.03-.83-1.53-.38-.56-.74-1.12-1.07-1.71-.1-.19-.96-.06-.91.04h0Z"/>
        <path class="cls-1" d="m184.09,373.61c-.76-.71-1.38-1.58-2.07-2.36s-1.41-1.39-1.95-2.22c-.02-.03-.14,0-.13.01,1.14,1.67,2.9,2.89,4.05,4.57.02.03.1,0,.1,0h0Z"/>
        <path class="cls-1" d="m178.78,369.35c1.44,2.05,3.19,3.98,5.23,5.45.23.17,1.44.06,1.28-.1-.77-.78-1.33-1.74-2.06-2.56-.84-.96-1.66-1.91-2.4-2.96-.31-.44-2.26-.14-2.05.17h0Z"/>
        <path class="cls-1" d="m187.79,375.75c-1.11-1.15-2.03-2.44-2.98-3.72-1.11-1.51-2.34-2.76-3.77-3.97-.25-.21-1.88-.21-1.66.13,1.61,2.61,3.02,5.45,4.96,7.84.41.51,1.64.42,2.21.37.18-.02,1.66-.22,1.25-.65h0Z"/>
        <path class="cls-1" d="m181.83,369.51c.45.57.85,1.14,1.14,1.81.06.14.57.07.52-.02-.33-.68-.78-1.26-1.27-1.82-.07-.08-.43-.02-.38.03h0Z"/>
        <path class="cls-1" d="m187.77,373.78c-2.14-2.04-3.88-4.43-5.9-6.59-.09-.09-.57-.03-.51.04,1.72,2.18,3.14,4.59,5,6.66.29.32,1.52,0,1.41-.11h0Z"/>
        <path class="cls-1" d="m191.29,374.05c-1.95-2.1-3.68-4.37-6.07-6-.44-.3-3.99-.54-3.84.3.43,2.33,2.42,4.43,3.89,6.19.74.88,2.84.72,3.84.64.33-.03,2.88-.38,2.18-1.13h0Z"/>
        <path class="cls-1" d="m187.31,368.77c-1.23-1.89-2.41-3.73-3.92-5.41-.53-.59-4.96-.87-4.83.19.27,2.1,1.23,3.9,2.22,5.75.19.36,1.27.54,1.56.59.84.15,1.76.17,2.61.1.49-.04,2.97-.29,2.37-1.22h0Z"/>
        <path class="cls-1" d="m190.92,372.17c-2.48-3.15-4.99-5.98-8.07-8.57-.64-.54-5.03-.66-4.48.36,1.63,3.03,3.44,5.87,5.25,8.8.67,1.09,3.6.86,4.66.78.46-.04,3.41-.39,2.64-1.37h0Z"/>
        <path class="cls-1" d="m183.84,370.98c-1.3-2.69-2.57-5.4-3.94-8.06s-3.14-4.68-5.06-6.99c-.3-.36-2.4-.3-2.18.18,2.4,5.19,5.63,10.07,8.36,15.11.32.59,3.09.33,2.82-.23h0Z"/>
        <path class="cls-1" d="m152.53,316.02c-.63-3.47-1.44-6.85-2.2-10.28-.12-.52-2.31-.53-2.39,0-.52,3.5-.41,6.77-.19,10.28.07,1.16,4.93.82,4.78,0h0Z"/>
        <path class="cls-1" d="m145.85,295.22c-.31,4.62.12,8.59,1.54,13.03.07.22,1.06.23,1.06,0,.04-4.34-.24-8.67-.48-13.03-.03-.45-2.09-.46-2.12,0h0Z"/>
        <path class="cls-1" d="m149.25,307.79c-.14-5.28-1.01-10.32-1.67-15.54-.05-.38-1.7-.37-1.73,0-.32,5.19.1,10.35-.06,15.54-.02.72,3.47.74,3.45,0h0Z"/>
        <path class="cls-1" d="m144.25,291.34c.15,4.14.67,7.92,1.94,11.88.18.57,2.69.54,2.66,0-.25-3.94-.12-7.94-.08-11.88,0-.96-4.55-.95-4.52,0h0Z"/>
        <path class="cls-1" d="m163.58,323.1c-.23-2.1-.32-3.98-1.14-5.94-.1-.24-1.18-.28-1.2,0-.06.98.28,1.95.34,2.94s.07,2,.13,3c.02.43,1.9.35,1.86,0h0Z"/>
        <path class="cls-1" d="m165.85,321.28c-.83-3.55-2.17-6.56-4-9.7-.24-.41-2.57-.34-2.48.1.66,3.16,1.39,6.38,1.7,9.6.12,1.22,4.95.74,4.78,0h0Z"/>
        <path class="cls-1" d="m162.47,361.04c.53,3.65.62,7.38,1.47,10.97.1.4,1.85.39,1.86,0,.08-3.73-.07-7.26-.54-10.97-.09-.67-2.86-.49-2.79,0h0Z"/>
        <path class="cls-1" d="m166.33,375.21c-.11-4.35-.42-8.58-1.54-12.8-.13-.49-2.25-.48-2.26,0-.04,2.12-.3,4.21-.17,6.33s.22,4.31.25,6.47c0,.8,3.74.78,3.72,0h0Z"/>
        <path class="cls-1" d="m161.26,358.98c-1,7.8-1.71,15.49-2.37,23.31-.01.12.63.15.66,0,1.52-7.84,3.84-15.46,5.29-23.31.11-.58-3.47-.9-3.59,0h0Z"/>
        <path class="cls-1" d="m159.81,383.66c1.11-5.35,1.52-10.6.61-16-.07-.43-1.92-.43-1.99,0-.88,5.4-.8,10.55-1.01,16-.02.48,2.28.54,2.39,0h0Z"/>
        <path class="cls-1" d="m151.96,357.38c.24,2.51,1.69,4.45,2.11,6.93s.02,4.99-.27,7.48c-.49,4.14-1.47,8.16-1.76,12.33-.04.54,2.37.51,2.61.1,2.26-3.77,3.81-7.24,4.77-11.52.56-2.48.92-5,1.49-7.46.65-2.78,2.43-4.99,2.33-7.85-.09-2.56-11.5-2.19-11.29,0h0Z"/>
        <path class="cls-1" d="m151.2,389.84c.74-3.93,1.06-8.01,2.02-11.88,0-.01-.09-.03-.1,0-.95,3.88-1.28,7.95-2.02,11.88,0,.02.1.03.1,0h0Z"/>
        <path class="cls-1" d="m152.77,375.89c-.73,3.23-1.13,6.52-1.78,9.76-.46,2.29-.53,5.63-1.78,7.68l1.21.05c1.17-3.4,2.8-6,2.67-9.71-.01-.31-1.4-.32-1.46,0-.6,3.28-1.85,6.43-2.44,9.71-.04.22,1.12.26,1.24,0,.88-2.05,1.11-4.97,1.65-7.14.86-3.45,1.29-6.85,1.9-10.35.03-.2-1.13-.29-1.2,0h0Z"/>
        <path class="cls-1" d="m152.1,378.41c-.03,2.34.28,5.35-.67,7.54-.04.1.57.11.65.03.68-.69.62-2.06.7-2.95.15-1.53.2-3.07.25-4.61,0-.19-.93-.2-.93,0h0Z"/>
        <path class="cls-1" d="m152.16,377.51c.08,0,.08-.04,0-.04s-.08.04,0,.04h0Z"/>
        <path class="cls-1" d="m150.89,380.92c-.28,1.15-.35,2.36-.82,3.46h1.11c-.14-1.35-.05-2.79-.04-4.15,0-.08-.39-.09-.4,0-.15,1.33-.08,2.88-.65,4.1-.12.26.92.22,1.07.09.99-.86,1.06-2.33,1.45-3.5.07-.2-1.61-.48-1.73,0h0Z"/>
        <path class="cls-1" d="m150.08,378.64c-.29,2.48-.55,4.98-1.24,7.39-.6,2.1-1.23,4.82-2.45,6.65l.66.03c.49-1.85,1.31-3.59,1.74-5.47s.64-3.87.81-5.85c.02-.26-1.24-.3-1.33,0-1.08,3.75-1.17,7.53-1.89,11.32-.02.13.59.12.66.03,1.13-1.63,1.66-3.93,2.3-5.8.92-2.69,1.3-5.48,1.67-8.29.02-.16-.9-.22-.93,0h0Z"/>
        <path class="cls-1" d="m148.94,374.52c-.3,1.55-.36,3.11-.47,4.68s-.43,3.08-.33,4.64c0,.1.27.12.33.13.6.06.95.03,1.31-.51s.3-1.42.34-2.02c.08-1.24.08-2.48.1-3.72,0-.11-.52-.12-.53,0-.09,1.35-.16,2.72-.34,4.06,0,.05-.11,1.21-.26,1.34s0-.93,0-1.13c.18-2.47.21-5.03.65-7.47.02-.13-.76-.2-.8,0h0Z"/>
        <path class="cls-1" d="m152.85,382.52c.26-2.34.82-5.47-.77-7.41-.38-.46-3.64-.58-3.51.14.3,1.75.41,2.99-.11,4.71-.47,1.55-1.78,2.93-1.69,4.58h4.71c-.15-1.44-.49-3.1-1.13-4.39-.18-.36-1.86-.35-2.05,0-.74,1.4-1.37,2.8-1.53,4.39-.09.86,4.54,1.11,4.71,0,.24-1.6-.59-2.96-.42-4.58.08-.72.03-1.52.18-2.23.17-.83.61-1.69.89-2.48l-3.51-.14c-.78.98-.99,2-1.39,3.17-.46,1.36-1.06,2.66-1.69,3.95-.74,1.49,7.09,2.27,7.3.29h0Z"/>
        <path class="cls-1" d="m149.59,382.98c.09-.46.18-.91.27-1.37.05-.25-1.33-.33-1.46,0-.18.46-.36.91-.54,1.37-.08.21.77.25.86.25.19,0,.81.01.86-.25h0Z"/>
        <path class="cls-1" d="m155.71,383.66c-.06-.77-.13-1.54-.21-2.31-.04-.34-.03-.75-.13-1.08-.15-.51-.54-.9-.86-1.3-.37-.44-1.1-.57-1.62-.69-.89-.2-1.82-.3-2.74-.28-1.41.02-3.21.04-4.35.97-.46.38-.88.69-1.21,1.18-.19.28-.34.61-.52.9-.41.71-.84,1.41-1.27,2.1-1.27,2.05,4.62,2.37,5.47,2.41,1.64.06,3.26-.02,4.86-.38.64-.15,2.67-.51,2.59-1.51h0Z"/>
        <path class="cls-1" d="m150.94,382.29c.17-1.14.3-2.28.41-3.43.03-.3-1.52-.37-1.59,0-.24,1.15-.51,2.29-.8,3.43-.07.28,1.91.53,1.99,0h0Z"/>
        <path class="cls-1" d="m159.16,372.01l-.2.91s.23.05.26.01c.56-.78.63-1.83.74-2.75.02-.13-.67-.15-.66,0,.02.88.11,1.93-.33,2.73h.26c.02-.29.05-.6.07-.9,0-.03-.13-.03-.13,0h0Z"/>
        <path class="cls-1" d="m161.29,372.24v-1.6s-.1-.02-.1,0v1.6s.1.02.1,0h0Z"/>
        <path class="cls-1" d="m164.97,373.61c-.1-.53-.18-1.06-.25-1.6-.07-.58-.38-1.07-.61-1.6-.36-.8-1.92-.79-2.66-.78s-2.3-.05-2.66.78c-.22.52-.5,1.03-.5,1.6,0,.53.01,1.06.04,1.6.02.4.72.61.97.69.73.22,1.6.3,2.35.29s1.61-.04,2.35-.29c.26-.09,1.04-.3.97-.69h0Z"/>
        <path class="cls-1" d="m160.98,370.43l.46,4.17c.08.69,3.11.69,3.19,0l.46-4.17c.09-.84-4.21-.87-4.12,0h0Z"/>
        <path class="cls-1" d="m155.19,367.09c.53,3.02.85,6.06,1.03,9.12.08,1.4,0,2.88.27,4.27.36,1.9.76,1.83,2.45,2.92,1.15.74,4.12.74,5.28,0,1.69-1.09,2.1-1.02,2.45-2.92.26-1.38.17-2.87.19-4.27.04-3.05-.06-6.08-.38-9.12-.28-2.76-11.63-1.92-11.29,0h0Z"/>
      </g>
    </g>
  </g>
</svg>