<?xml version="1.0" encoding="UTF-8"?>
<svg id="Layer_2" data-name="Layer 2" xmlns="http://www.w3.org/2000/svg" viewBox="0 0 1560 490">
  <defs>
    <style>
      .cls-1 {
        fill: #dbf4ff;
        opacity: .6;
      }
    </style>
  </defs>
  <g id="Layer_1-2" data-name="Layer 1">
    <path class="cls-1" d="m535.24,145.87s-88.79-61.61-170.28-5.91c-48.86,33.4-114.12,96.38-240.21,77.95-30.17-4.41-78.61-4.12-114.03,35.43,0,0-43.7,36.58,45.31,50.49,57.48,8.98,152.3,54.83,234.52-.29,82.22-55.12,32.17,25.83,47.16,17.69,14.99-8.14,34.57-38.37,201.8,12.69,32.43,9.9,125.02,61.53,190.62,49.29,76.5-14.28,65.4,31.1,141.7,16.49,31.32-6,41.6,30.21,70.97,35.34,33.64,5.88,146.37,92.47,238.06,35.82,88.71-54.81,361.18-2.06,378.62-97.93,10.42-57.33-137.6-85.9-195.45-128.03-40.11-29.2-110.25-84.96-161.25-82.23-119.51,6.4-166.82-160.39-273.61-143.01-88.47,14.4-248.44-108.89-393.93,126.21Z"/>
  </g>
</svg>