<?xml version="1.0" encoding="UTF-8"?>
<svg id="Layer_2" data-name="Layer 2" xmlns="http://www.w3.org/2000/svg" viewBox="0 0 277.96 530.72">
  <defs>
    <style>
      .cls-1 {
        fill: #994040;
      }
    </style>
  </defs>
  <g id="Layer_19" data-name="Layer 19">
    <g>
      <path class="cls-1" d="m208.2,527.63c1.07-9.07,2.44-18.18,2.83-27.3s.12-17.61.28-26.41c.32-18.47.74-36.95.2-55.42-.52-17.93-2.12-35.77-3.99-53.6-.89-8.5-.77-17.6-3.02-25.87-.93-3.42-2.57-6.59-3.39-10.03-1-4.22-1.89-8.6-2.34-12.92-.51-4.95-.02-9.94-.36-14.9-.32-4.61-.74-9.21-1.15-13.81-.89-10.06-4.12-19.71-5.06-29.77-.01-.15-.67-.13-.66,0,.45,8.77,2.77,17.27,3.53,26,.72,8.27.78,16.68,1.09,24.98.16,4.43.7,8.67,1.32,13.06.58,4.14.37,8.23,1.32,12.34,1.83,7.95,2.11,16.13,3.25,24.21,2.52,17.8,5.18,35.41,6.06,53.39.89,18.11,1.02,36.31.42,54.43-.33,10.14-.46,20.29-.87,30.43s-2.15,20.84-3.57,31.21c-.1.72,4,1,4.12,0h0Z"/>
      <path class="cls-1" d="m259.14,501.17c-2.77-5.98-3.42-12.43-5.19-18.72s-3.12-12.82-4.77-19.26c-1.49-5.83-3.33-11.55-4.81-17.39-1.59-6.29-3.07-12.74-4.87-18.96-.87-3-2.1-5.93-2.65-9.01-.5-2.8.05-5.61-.37-8.41-.97-6.38-4.87-12.35-5.74-18.67-.35-2.52.67-4.99.16-7.51s-1.72-4.4-1.72-7.09c.02-6.26-2.56-11.73-2.91-17.91-.17-2.96.4-5.83-.23-8.77-.56-2.61-1.12-4.87-1.23-7.56-.27-6.26-1.31-12.37-1.44-18.65-.25-12.14-2.95-24.11-4.2-36.14-1.4-13.56.18-27.37.38-40.96.09-6.18-.02-12.36-.67-18.51-.69-6.52-2.03-12.66-2.26-19.22-.13-3.72-.98-7-2.03-10.54-.97-3.29-1.05-6.38-1.48-9.75-.88-6.92-2.67-13.93-3.83-20.84-1.18-7.04-1.76-14.37-3.43-21.31-.83-3.42-1.7-6.73-2.05-10.24-.37-3.7-1.62-7.25-1.69-10.97,0-.17-.78-.18-.8,0-.3,3.38.49,6.69.57,10.07.06,2.91.15,5.7.56,8.6.88,6.23.46,12.52,1.45,18.71s1.81,12.17,2.91,18.22c1.18,6.48.22,13,2.19,19.31,3.76,12.07,5.87,25.46,6.29,38.11.45,13.37-.76,26.72-.47,40.09.28,12.64.8,25.41,1.68,38,.42,5.92.99,11.89,2.34,17.67.71,3.04,1.24,6,1.64,9.1s1.69,5.49,2.29,8.35.38,6,.94,8.97,1.51,5.63,2.24,8.46.72,4.89.77,7.71c.07,3.56,2.47,5.15,3.01,8.55.39,2.49-.23,5.09.16,7.63.53,3.44,1.58,6.89,2.65,10.19.89,2.77,2.08,5.46,2.35,8.37.29,3.11-.07,6.21.36,9.33,1.96,14.21,6.67,27.51,10.53,41.27,1.95,6.94,3.27,14.01,5.22,20.97,1.79,6.37,2.49,12.89,5.3,18.95.28.6,3.08.34,2.82-.23h0Z"/>
      <path class="cls-1" d="m200.72,110.51c-.37-4.39-1-8.76-1.1-13.17,0-.03-.13-.03-.13,0,.1,4.41.72,8.78,1.1,13.17,0,.03.13.03.13,0h0Z"/>
      <path class="cls-1" d="m194.3,254.31c-.08-25.88,5.78-51.18,4.92-77.07-.2-6.16-1.29-12.26-1.35-18.41-.06-6.18-.08-12.09-.79-18.25-.64-5.54-1.13-11.21-2.23-16.68-.74-3.7-1.53-7.7-4.54-10.24-.53-.44-3.9-.4-3.46.28,2.19,3.34,1.98,7.81,2.38,11.62.61,5.68,2.16,11.24,2.85,16.92.75,6.09-.1,12.06.03,18.15s1.03,12.29,1.09,18.49c.21,25.28-5.71,49.91-5.95,75.19-.01,1.47,7.04,1.51,7.04,0h0Z"/>
      <path class="cls-1" d="m188.28,246.62c1.74,6.52,2.05,13.49,3.5,20.12s1.74,13.12,3.25,19.55,2.98,12.53,3.83,19.11c.94,7.32,3.39,14.12,4.66,21.35.12.66,2.96.67,3.05,0,1.08-7.25-.8-13.49-2.56-20.45s-4.02-13.32-6.48-20.02c-2.25-6.12-2.57-12.29-3.64-18.64-1.18-6.93-1.29-14.2-2.81-21.02-.16-.73-2.89-.39-2.79,0h0Z"/>
      <path class="cls-1" d="m205.41,321.27c-.52-8.82-2.49-17.45-2.97-26.28s-2.2-18.11-3.34-27.15c-2.24-17.87-3.72-35.9-7.41-53.55-1.77-8.48-4.51-16.72-6.37-25.17-.92-4.17-1.11-8.39-1.87-12.57s-2.34-7.66-3.77-11.44c-3-7.93-4.31-16.35-6.62-24.48-2.11-7.41-6.79-13.81-8.33-21.33-.13-.65-2.57-.58-2.79,0-2.27,6.03,3.05,14.67,4.71,20.45,2.41,8.41,3.68,17.13,6.71,25.36,1.4,3.79,2.96,7.46,3.78,11.44.86,4.19,1.24,8.42,2.3,12.57,2.16,8.46,5.18,16.68,7.25,25.17,4.27,17.57,5.52,35.67,7.9,53.55,1.17,8.77,3.22,17.4,4.05,26.21.86,9.15,3.04,18.08,3.86,27.22.06.66,2.96.58,2.92,0h0Z"/>
      <path class="cls-1" d="m199.58,199.42c-1.96-10.91-4.6-21.67-7.44-32.37-1.29-4.84-2.57-9.69-4.13-14.46s-4.27-9.37-4.6-14.36l-5.25.21c1.26,2.69,1.8,5.59,3,8.29.35.78,3.95.77,3.85,0-.37-3-.35-5.96-1.7-8.71-.45-.93-5.41-.72-5.25.21.82,4.64,2.78,8.95,4.05,13.47,1.43,5.09,2.71,10.22,3.98,15.35,2.65,10.71,5.08,21.47,6.84,32.37.26,1.63,6.84,1.11,6.64,0h0Z"/>
      <path class="cls-1" d="m180.43,119.29c-2.31-11.87-4.54-23.75-6.78-35.64-1.1-5.85-2.67-11.63-4.11-17.41s-2.35-11.65-4.45-17.2c-.12-.32-1.38-.19-1.33,0,3.18,11.18,3.33,23.23,5.72,34.62,2.49,11.89,5.28,23.69,7.49,35.64.16.86,3.56.56,3.45,0h0Z"/>
      <path class="cls-1" d="m161.54,38.06c1.99,13.36,1.6,26.86,3.05,40.26,1.42,13.05,3.04,26.12,6.66,38.77.12.41,1.78.29,1.73,0-4.81-26.03-3.33-52.95-7.85-79.03-.15-.86-3.68-.63-3.59,0h0Z"/>
      <path class="cls-1" d="m174.31,124.79c.06,0,.06-.03,0-.03s-.06.03,0,.03h0Z"/>
      <path class="cls-1" d="m178,133.56c-1.28-14.38-6.79-31.73-17.58-41.83-.48-.45-3.31-.27-2.95.24,4.05,5.68,5.85,12.76,8.52,19.14,3.05,7.29,5.74,14.58,6.83,22.45.17,1.2,5.27.98,5.18,0h0Z"/>
      <path class="cls-1" d="m173.39,110.32c-8.81-15.52-16.3-31.75-24.73-47.48-4.23-7.89-8.24-15.67-11.46-24.05-1.5-3.9-2.92-7.83-4.37-11.74-1.11-3.01-1.61-6.29-3.65-8.83-.27-.34-2.12-.23-1.92.16,1.7,3.22,2.06,7.7,3.24,11.21,1.32,3.9,2.64,7.81,4.06,11.67,2.8,7.61,6.34,14.69,10,21.91,8.02,15.87,15.24,32.09,24.1,47.53.59,1.02,5.22.46,4.74-.38h0Z"/>
      <path class="cls-1" d="m137.16,53.43c2.22,6.18,5.02,12.12,7.08,18.36,1.63,4.94,3.19,9.54,6.7,13.5.11.13.71.03.64-.05-3.68-4.37-4.98-9.62-6.61-14.96-1.74-5.7-4.12-11.18-5.96-16.85-.16-.5-1.93-.21-1.86,0h0Z"/>
      <path class="cls-1" d="m171.11,131.36c-4.41-14.34-9.11-27.98-16.36-41.17-3.78-6.87-8.35-13.26-12.27-20.05-4.08-7.07-8.74-14.19-10.66-22.21-.04-.16-.68-.12-.66,0,2.06,13.98,11.3,27.33,18.34,39.26,4.24,7.19,8.61,14.3,11.74,22.06,2.91,7.21,5.12,14.69,7.48,22.1.2.62,2.49.31,2.39,0h0Z"/>
      <path class="cls-1" d="m124.91,28.2c.08,0,.08-.04,0-.04s-.08.04,0,.04h0Z"/>
      <path class="cls-1" d="m126.25,29.28c1.88,4.19,4.26,8.18,5.65,12.57,1.18,3.72,2.08,7.5,3.55,11.13s3.63,7.37,4.87,11.24c.77,2.43.81,4.31,3.14,5.67.46.27,3.41.6,3.44-.27.09-2.42-.73-4.35-1.69-6.51-1.34-2.99-2.17-6.09-3.11-9.21-1.98-6.58-5.7-12.72-7.02-19.46-1.22-6.22-1.41-12.29-4.05-18.17-1.21-2.69-2.77-5.17-4.06-7.81-1.37-2.8-.67-5.38-1.94-8.02l-3.67.15c.82,2.12.33,3.96,1.91,5.8.49.58,3.7.36,3.33-.27-1.08-1.84-.4-3.82-1.57-5.68-.45-.72-3.96-.42-3.61.29,1.22,2.43.62,5.95,1.36,8.62.81,2.92,1.78,5.81,2.71,8.69,1.92,6,2.85,12.14,4.65,18.13,1.83,6.11,5.24,11.83,7.66,17.73,1.58,3.86,6.77,11.68,5.43,15.72l3.63-.14c-1.77-1.51-2.45-4.9-3.58-7.04-2.19-4.15-4.58-8.25-6.43-12.57-2.97-6.93-5.73-13.79-8.89-20.65-.18-.39-1.77-.09-1.7.07h0Z"/>
      <path class="cls-1" d="m237.06,86.1c-3.51,11.76-6.29,23.65-8.45,35.72-2.15,12.03-3.35,24.54-6.33,36.38-1.32,5.27-4.16,10.02-5.51,15.27s-1.28,10.8-2.14,16.14c-.45,2.81-1.18,5.59-1.54,8.42-.34,2.61.33,5.23-.08,7.79-.45,2.82-1.82,4.78-1.48,7.76.29,2.62,1.33,5.13,1.79,7.72.02.1.41.07.4,0-.4-2.58-1.38-5.12-1.62-7.72s.77-4.56,1.42-6.99.21-5.09.67-7.63c.52-2.85,1.52-5.61,2.25-8.41,1.47-5.65,2.16-11.46,3.77-17.07,1.48-5.17,3.93-10.02,5.12-15.27,5.41-23.89,8.76-48.26,14.37-72.1.09-.4-2.46-.66-2.66,0h0Z"/>
      <path class="cls-1" d="m238.48,92.31c-4.75,26.72-10.05,53.33-14.23,80.15-1.94,12.45-4.47,24.6-7.77,36.77-1.61,5.92-2.11,11.12-2.34,17.22-.25,6.47-1.61,13.36-.06,19.71.11.44,1.88.43,1.99,0,1.6-6.02,1.88-12.61,2.46-18.81s1.3-11.96,3.3-18.11c3.93-12.12,5.51-24.22,7.37-36.77,3.96-26.73,7.92-53.47,12.2-80.15.08-.49-2.79-.72-2.92,0h0Z"/>
      <path class="cls-1" d="m231.49,482.38c.55-13.58.04-27.08-2.31-40.49-2.46-14.04-6.17-27.72-8.08-41.88-.17-1.28-5.78-1.24-5.84,0-.68,14.2,2.06,27.97,4.51,41.88s3.6,26.92,3.76,40.49c.02,1.67,7.9,1.74,7.97,0h0Z"/>
      <path class="cls-1" d="m228.69,497.92c0-15.55.87-31.07,1.1-46.62.12-7.66.02-15.34.23-23s.76-14.79-1.41-22.07c-.35-1.17-4.98-1.18-5.31,0-4.11,14.77-4.62,29.86-5.4,45.07-.79,15.51-1.04,31.09-.89,46.62.02,2.48,11.69,2.49,11.69,0h0Z"/>
      <path class="cls-1" d="m224.32,502.58c1.32-12.64,1.52-25.33,1.36-38.03-.16-12.69-.04-25.69-2.95-38.12-.31-1.31-5.67-1.31-5.98,0-2.87,12.48-1.55,25.46-1.1,38.12s.54,25.37-.5,38.03c-.14,1.73,8.94,2.14,9.16,0h0Z"/>
      <path class="cls-1" d="m223.56,511.91c1.29-13.46,2.23-26.95,3.22-40.43.97-13.24,1.89-27.16.4-40.38-.14-1.26-5.2-1.16-5.58,0-4.19,12.81-5.42,26.99-6.2,40.38-.78,13.48-1.52,26.97-2.61,40.43-.16,2.04,10.52,2.5,10.76,0h0Z"/>
      <path class="cls-1" d="m221.71,507.25c2.76-22.44,5.76-45.78,3.56-68.38-.17-1.74-7.56-1.72-7.97,0-5.24,22.32-5.82,45.69-8.87,68.38-.31,2.33,12.89,3.21,13.28,0h0Z"/>
      <path class="cls-1" d="m224.12,499.48c.85-16.99,2.48-33.93,2.22-50.96-.27-17.38-3.42-34.36-5.1-51.61-.13-1.34-6.09-1.28-6.11,0-.32,17.24,1.39,34.39,1.43,51.61.04,16.99-.91,33.97-1.21,50.96-.03,1.79,8.67,1.94,8.77,0h0Z"/>
      <path class="cls-1" d="m220.58,479.27c3.21-26.96,4.28-55.57-.5-82.37-.27-1.51-6.64-1.51-6.91,0-4.76,27.05-1.01,55.03-3.61,82.37-.19,2.04,10.71,2.6,11.02,0h0Z"/>
      <path class="cls-1" d="m224.48,462.18c.25-11.99-.32-23.96-1.64-35.87-1.21-10.87-4.86-21.61-5.37-32.5-.05-1.01-4.57-1.05-4.78,0-2.15,10.79,1.44,21.81,2.9,32.5,1.62,11.9,2.48,23.87,2.52,35.87,0,1.33,6.35,1.38,6.38,0h0Z"/>
      <path class="cls-1" d="m237.75,487.04c-.57-25.66-4.77-50.81-8.34-76.15-.21-1.51-6.83-1.47-6.91,0-1.29,25.57,3.52,50.64,4.09,76.15.05,2.41,11.21,2.33,11.16,0h0Z"/>
      <path class="cls-1" d="m242.65,479.27c-2.55-14.99-5.6-29.89-9.01-44.7-3.03-13.15-5.51-28.05-12.91-39.55-.87-1.35-8.69-1.13-8.35.33,1.52,6.44,1.53,13.07,2.29,19.62.79,6.92,2.63,13.76,4.22,20.52,3.41,14.51,6.46,29.1,9.03,43.78.63,3.6,15.17,2.49,14.74,0h0Z"/>
      <path class="cls-1" d="m250.75,487.04c-5.15-20.44-10.81-40.98-18.53-60.61-.79-2.01-9.67-1.81-9.43,0,2.73,20.4,7.29,40.72,12.55,60.61,1.03,3.9,15.97,2.25,15.41,0h0Z"/>
      <path class="cls-1" d="m253.31,490.15c-2.41-10.37-4.53-20.79-7.28-31.08-.36-1.34-6.08-1.16-5.98,0,.9,10.51,2.87,20.79,5.15,31.08.46,2.05,8.39,1.22,8.1,0h0Z"/>
      <path class="cls-1" d="m260.27,491.71c-5.87-15.08-11.55-30.37-20.64-43.87-1.05-1.56-9.32-.85-8.87.35,5.33,14.27,9.29,28.95,13.71,43.51,1.34,4.4,16.42,1.59,15.8,0h0Z"/>
      <path class="cls-1" d="m260.41,491.71c-4.72-10.8-9.29-21.67-13.6-32.64-.87-2.22-10.83-2.15-10.62,0,1.08,11.3,4.6,21.91,8.16,32.64,1.52,4.58,16.67,1.38,16.07,0h0Z"/>
      <path class="cls-1" d="m268.81,496.97c-7.62-16.26-14.35-32.86-24.43-47.83-1.8-2.67-16.17-1.54-15.39.61,5.78,15.93,8.86,32.66,15.82,48.18,2.81,6.26,26.12,3.57,24-.95h0Z"/>
      <path class="cls-1" d="m248.82,465.29c-3.89-14.41-8.99-28.93-15.67-42.29-.7-1.41-8.5-1.31-8.35.33,1.33,14.45,8.39,28.15,12.46,41.96.86,2.92,12,1.63,11.55,0h0Z"/>
      <path class="cls-1" d="m233.87,432.65c-2.24-10.61-4.45-21.22-6.78-31.81-1.5-6.82-2.24-16.83-8.41-21.19-.47-.33-4.51-.58-4.17.17,3.03,6.85,3.53,14.72,5.32,21.96,2.54,10.29,5.04,20.58,7.54,30.88.39,1.61,6.72,1.03,6.51,0h0Z"/>
      <path class="cls-1" d="m237.15,432.65c-1.54-12.7-3.53-25.34-6.55-37.77-2.67-11.01-4.57-23.78-12.39-32.41-.92-1.02-5.82-1.25-6.39.25-1.67,4.38,1.07,10.44,2.24,14.78,1.65,6.14,3.76,12.14,5.45,18.27,3.35,12.12,5.73,24.47,7.68,36.89.37,2.35,10.18,1.81,9.96,0h0Z"/>
      <path class="cls-1" d="m234,426.43c-2.81-20.61-2.92-42.37-13.83-60.77-.43-.72-4.23-.44-4.04.16,6.15,19.81,8.02,40.2,11.1,60.61.24,1.62,6.94,1.21,6.77,0h0Z"/>
      <path class="cls-1" d="m229.48,412.45c-1.87-13.86-3.86-27.75-6.37-41.51-1.44-7.9-.71-17.76-8.16-22.72-.87-.58-7.11-.68-6.31.78,1.7,3.1.98,8.02.84,11.39-.19,4.57-.05,8.89.54,13.44,1.68,12.92,4.24,25.73,6.19,38.61.48,3.17,13.6,2.37,13.28,0h0Z"/>
      <path class="cls-1" d="m223.36,404.68c-.36-11.57-2.11-23.01-3.2-34.52-.96-10.17-.42-22.12-6.23-31.04-.82-1.25-6.67-1.3-7.17.28-1.54,4.86.2,10.29.73,15.23.58,5.48.89,10.98,1.57,16.46,1.38,11.2,3.31,22.31,3.95,33.58.13,2.28,10.43,2.12,10.36,0h0Z"/>
      <path class="cls-1" d="m225.47,424.88c-1.74-14.83-.64-29.59-3.27-44.38-2.65-14.88-5.81-29.62-9.76-44.21-.41-1.53-7.01-1.58-7.17,0-1.48,14.65,3.51,29.88,6.14,44.21,1.39,7.58,2.87,15.11,3.39,22.81.49,7.24,1.01,14.41,2.3,21.57.35,1.97,8.55,1.53,8.37,0h0Z"/>
      <path class="cls-1" d="m221.87,421.77c.16-8.52.61-17.07-.14-25.58-.68-7.69-2.23-15.25-3.16-22.9-.92-7.5-.59-15.11-1.7-22.59-.82-5.47-1.37-11.82-6.47-14.93-.74-.45-7.17-.71-6.68.53,4.71,11.99,2.39,26.27,3.83,38.83.84,7.36,2.44,14.61,3.19,21.98.84,8.19.6,16.44.64,24.66.01,2.2,10.45,2.27,10.49,0h0Z"/>
      <path class="cls-1" d="m235.39,401.57c-1.32-8.39-2.92-16.59-4.83-24.86-.31-1.33-6.07-1.29-6.11,0-.24,8.43.2,16.51,1.38,24.86.33,2.32,9.82,1.65,9.56,0h0Z"/>
      <path class="cls-1" d="m236.92,418.66c1.51-16.19-1.51-32.29-8.43-46.95-.67-1.41-8.41-1.37-8.35.33.58,15.68,5.32,30.83,4.16,46.62-.18,2.41,12.34,2.92,12.62,0h0Z"/>
      <path class="cls-1" d="m231.73,381.37c-2.03-9.08-3.81-18.2-5.39-27.36-.75-4.35-1.23-8.77-2.29-13.05-1.11-4.5-3.57-8.08-4.92-12.42-.54-1.74-7.68-1.82-8.1,0-.98,4.26.42,8.18.84,12.42s1.13,8.69,2.02,13.05c1.88,9.17,3.97,18.29,6.29,27.36.73,2.87,11.95,1.79,11.55,0h0Z"/>
      <path class="cls-1" d="m220.35,345.62c.03-12.35-3.07-24.29-3.98-36.55-.4-5.37-.34-10.16-1.97-15.33-1.82-5.75-.83-10.98-1.17-16.85-.69-12.05-4.17-23.77-5.26-35.73-.89-9.84-.54-22.01-6.53-30.42-.41-.58-4.11-.71-4.05.16.29,4.19,1.39,8.11,2.14,12.22.89,4.84.89,9.89.98,14.8.18,9.9-.18,19.8.99,29.65,1.13,9.48,2.61,18.9,4.63,28.23,2.16,9.93,4.9,19.64,6.45,29.67l3.59-.14c-1.53-1.41-.57-4.34-.36-6.12.31-2.67.21-5.25-.04-7.93-.65-6.99-2.15-13.88-3.27-20.81-1.14-7.02-2.43-14.02-3.65-21.02-1.28-7.36-1.65-14.92-3.46-22.18-.31-1.25-5.73-1.18-5.72,0,.15,12.68,2.24,25.59,3.59,38.18,1.05,9.77,2.15,19.52,3.37,29.27.96,7.64,1.59,15.56,3.36,23.07.43,1.82,1.24,8.69,3.94,8.71.19,0,.81,0,.87-.26,1.95-8.44,2.82-16.25,2.13-24.91-.66-8.14-1.74-16.24-2.5-24.37-1.6-17.18-.4-35.66-5.15-52.36-.27-.94-4.1-.69-3.98,0,1.47,8.64.5,17.33.82,26.03s1.16,17.58,2.19,26.33c.97,8.19,2.76,16.22,4.03,24.37,1.25,8.04,2.6,16.88.73,24.91l1.1-.25c.51.03-.2-2.28-.31-3.14-.32-2.42-.4-4.87-.7-7.29-.93-7.59-1.85-15.18-2.61-22.79-1.7-17.04-3.13-34.1-4.34-51.18-.34-4.75-.89-9.57-.83-14.34h-5.72c1.64,7.3,1.64,14.82,2.94,22.18,1.35,7.63,3.07,15.21,4.52,22.83,1.37,7.23,3.08,14.39,3.75,21.74.26,2.84-.8,9.65,1.78,11.59.39.3,3.84.58,3.59-.14-6.34-18.2-8.2-38.75-10.28-57.89-1.07-9.86-1.32-19.76-1.92-29.65-.3-4.96-.74-9.89-1.53-14.8-.66-4.06-1.62-8.1-.98-12.22h-4.13c1.87,4.14,1.49,9.05,1.77,13.51.38,5.89.69,11.8,1.14,17.69.92,11.91,4.19,23.65,4.47,35.66.13,5.59-.53,10.54,1.22,15.98,1.66,5.13,1.9,10.01,2.56,15.33,1.51,12.19,4.32,24.21,4.35,36.55,0,1.57,7.43,1.59,7.44,0h0Z"/>
      <path class="cls-1" d="m213.52,326.99c.06,0,.06-.03,0-.03s-.06.03,0,.03h0Z"/>
      <path class="cls-1" d="m217.38,311.43c-3.2-15.95-3.62-32.06-1.37-48.16,1.95-13.99,5.51-29.96-3.12-42.3-1.06-1.52-6.93-1.34-8.07,0-2.21,2.61-1.96,4.93-1.77,8.22.22,3.74.38,7.53.23,11.28-.29,7.65-1.84,15.17-2.27,22.81-.92,16.16-.83,32.25,2.43,48.16.71,3.46,14.39,2.23,13.95,0h0Z"/>
      <path class="cls-1" d="m206.93,278.47c-.72,9.59.87,18.73,4.45,27.66.71,1.76,7.64,1.88,8.23,0,2.72-8.62-.35-18.85-1-27.66-.18-2.5-11.5-2.53-11.69,0h0Z"/>
      <path class="cls-1" d="m217.98,304.18c-.53-12.57-.34-25.96-5.14-37.79-.47-1.15-5.68-1.15-5.58,0,1.1,12.63,2.6,25.21,4.21,37.79.19,1.47,6.56,1.3,6.51,0h0Z"/>
      <path class="cls-1" d="m205.59,266c-.25-4.56-.55-9.1-.98-13.66-.19-2.01-.07-4.32-1.47-5.93-1.12-1.29-8.44-1.8-8.89.35-1.04,4.9.47,10.45,1.45,15.28,1.03,5.07,2.06,10.09,2.36,15.27h7.56c-1.11-5.54-1.55-11.2-1.88-16.83s-.21-11.23-2.6-16.68c-.41-.93-4.77-1.09-4.78,0-.15,11.27.27,22.32,1.7,33.52.21,1.67,7.54,1.58,7.56,0,.07-5.14-.59-10.18-1.25-15.27s-.45-10.23-1.07-15.28c-2.96.12-5.93.24-8.89.35,1.67,1.3,1.63,4.57,1.96,6.53.69,4.11,1.24,8.22,1.78,12.35.22,1.69,7.52,1.47,7.44,0h0Z"/>
      <path class="cls-1" d="m201.91,245.36c3.39-7.71,3.65-16.44,4.06-24.74.29-5.97,2.56-17.47-4.45-20.28-1.88-.75-5.86-1.27-7.53.29-2.34,2.19-1.75,5.72-1.53,8.6.32,4.12.57,8.23.67,12.36.19,7.73,1.16,16.2-.67,23.77-.37,1.53,8.51,2.09,9.43,0h0Z"/>
      <path class="cls-1" d="m205.9,220.81c.09-9.24-.79-18.71-3.17-27.66-.06-.22-.96-.16-.93,0,1.65,9.26,3.58,18.21,3.84,27.66,0,.06.27.06.27,0h0Z"/>
      <path class="cls-1" d="m217.04,219.26c-.9-12.61-2.46-26.59-10.18-37.02-1.13-1.52-9.85-1.97-10.17.4-1.69,12.51,3.08,24.35,4.81,36.62.5,3.56,15.75,3.01,15.54,0h0Z"/>
      <path class="cls-1" d="m195.7,151.86c.86,6.25,1.1,12.67,2.68,18.79s3.13,12.43,4.78,18.6c.08.3,1.35.26,1.33,0-.87-12.45-1.48-24.97-2.67-37.4-.14-1.45-6.26-1.1-6.11,0h0Z"/>
      <path class="cls-1" d="m207.3,186.53c-.42-5.88-.88-11.93-1.92-17.73-.98-5.48-3.42-10.42-4.72-15.77-.12-.49-2.23-.49-2.26,0-.31,5.1,1.08,10.69,1.64,15.77.67,6.04,2.22,11.79,3.41,17.73.17.88,3.9.75,3.85,0h0Z"/>
      <path class="cls-1" d="m198.14,153.42c2.97,12.69,5.71,25.23,7.35,38.18.04.3,1.35.26,1.33,0-.91-12.96-3.32-25.46-5.89-38.18-.14-.71-2.89-.42-2.79,0h0Z"/>
      <path class="cls-1" d="m210.45,185.37c-1.63-8.97-3.67-17.22-7.58-25.5-.35-.75-4.41-.76-4.43.18-.22,8.93,2.59,16.84,4.97,25.32.47,1.67,7.25,1.19,7.04,0h0Z"/>
      <path class="cls-1" d="m197.23,168.61c.11,7.92-.49,16.1,1.88,23.76.21.68,3.19.67,3.19,0-.09-8-.93-15.83-2.01-23.76-.09-.68-3.06-.62-3.05,0h0Z"/>
      <path class="cls-1" d="m206.46,309.24c-2.15-12.19-6.78-24.04-10.78-35.71s-9.35-21.68-14.45-32.51c-4.67-9.93-10.26-19.47-15.39-29.17-2.82-5.33-6.36-10.16-9.37-15.38-1.44-2.5-2.56-5.17-4.06-7.64s-3.33-4.48-4.62-6.99c-.01-.03-.14-.01-.13.01,1.1,2.25,2.69,4.1,3.99,6.23,1.51,2.47,2.57,5.16,3.91,7.72,2.61,4.97,6.04,9.45,8.52,14.5s4.29,10.1,6.89,15.01c2.78,5.25,5.57,10.44,8.18,15.78,5.15,10.54,10.13,21.3,13.87,32.42,3.85,11.48,7.78,23.75,9.72,35.71.15.91,3.83.62,3.72,0h0Z"/>
      <path class="cls-1" d="m140.64,170.15c-.77-1.21-1.8-2.42-2.07-3.87-.02-.09-.41-.07-.4,0,.18,1.45,1.13,2.69,1.83,3.92.08.15.71.05.64-.05h0Z"/>
      <path class="cls-1" d="m192.84,250.75c-1.88-3.08-4.14-5.8-6.25-8.71-2.6-3.58-4.3-7.69-6.92-11.27-5.03-6.88-11.49-12.08-14.15-20.47-.04-.14-.55-.07-.53,0,2.21,7.52,8.16,12.73,12.32,19.12,2.41,3.7,4.05,7.86,6.57,11.48,2.39,3.43,5.27,6.44,7.55,9.97.19.3,1.55.12,1.41-.11h0Z"/>
      <path class="cls-1" d="m178.74,228.88c-1.9-3.42-4.15-6.53-6.33-9.77-1.9-2.82-2.73-6.09-4.51-8.94-.95-1.52-2.25-2.77-3.33-4.18-.9-1.17-1.21-2.14-1.99-3.24-1.56-2.18-3-4.23-4.4-6.54-1.12-1.84-2.49-3.32-3.61-5.13-1.78-2.89-3.33-5.95-5.33-8.7s-4.07-5.17-5.76-8.05c-1.44-2.45-2.31-5.68-4.4-7.68-.14-.14-.69.01-.64.05,2.26,1.91,2.91,5.03,4.08,7.68,1.42,3.21,3.27,5.29,5.3,8.11,2.18,3.03,3.87,6.35,5.84,9.49.95,1.52,2.21,2.74,3.07,4.36,2.7,5.08,6.22,9.85,8.46,15.23,2.71,6.49,7.14,11.54,10.72,17.55.35.6,3.1.28,2.82-.23h0Z"/>
      <path class="cls-1" d="m141.61,170.49c-.9-1.18-1.71-2.44-2.79-3.47-.15-.14-1-.07-.9.07.8,1.08,1.29,2.34,1.89,3.54.23.46,1.97.09,1.79-.15h0Z"/>
      <path class="cls-1" d="m140.26,170.21c2.5,5.08,5.96,9.76,9.67,14,.04.05.28.02.26-.02-3.35-4.36-6.68-9.04-9.03-14.05-.09-.19-.98-.1-.9.07h0Z"/>
      <path class="cls-1" d="m196.84,266.59c-6.86-13.93-15.44-26.75-23.42-40.03-.23-.39-2.44-.32-2.35.09.64,2.99,2.78,5.66,4.28,8.28,1.9,3.32,3.68,6.75,5.47,10.13,3.83,7.25,7.79,14.23,11.19,21.71.58,1.27,5.26.69,4.83-.19h0Z"/>
      <path class="cls-1" d="m194.69,261.33c-1.39-3.25-2.45-6.67-4.07-9.82-1.78-3.46-3.97-6.7-5.77-10.17s-3.49-7.01-5.6-10.3c-1.86-2.89-4.49-4.56-6.49-7.22-.29-.38-2.55-.51-2.61.1-.25,2.73,1.65,4.25,3.21,6.24,2.4,3.07,4.35,6.48,6.33,9.82,2.09,3.52,4.38,6.85,6.59,10.29s3.79,7.42,5.67,11.16c.3.59,2.86.17,2.74-.11h0Z"/>
      <path class="cls-1" d="m176.2,227.31c-1.38-1.95-2.7-3.94-3.87-6.02-.48-.85-.92-1.71-1.39-2.56-.57-1.04-1.44-1.87-1.9-2.98-.17-.43-2.05-.5-2.12,0-.28,1.99.78,3.4,1.71,5.07,1.31,2.35,2.8,4.57,4.37,6.75.49.68,3.53.21,3.2-.26h0Z"/>
      <path class="cls-1" d="m200.57,271.07c-1.8-5.12-3.39-10.3-4.86-15.53-.58-2.07-7.54-.68-7.26,0,2.82,6.91,4.87,13.98,7.36,21.01.23.64,2.92.51,2.83,0-1.29-7.74-1.62-14.9-5.56-21.95-.27-.48-2.85-.34-2.74.11,1.75,7.13,6.38,14.29,5.47,21.84h2.83c-.61-7.06-1.73-14.09-2.93-21.01h-7.26c1.9,5.24,3.92,10.42,6.14,15.53.64,1.46,6.24.74,5.98,0h0Z"/>
      <path class="cls-1" d="m212.09,332.22c.16-9.58-2.89-18.98-2.62-28.46.06-1.99-9.72-2.19-9.82,0-.12,2.59.83,5.08,1.41,7.59.8,3.46,1.5,6.95,2.12,10.45,1.12,6.26,1.3,12.59,2.16,18.87h7.16c-2.66-6.26-1.61-14.15-5.21-20.02-.37-.6-3.76-.69-3.81.15-.35,5.74,1.53,11.82,1.9,17.59h3.03c-.99-4.41.34-9.5-1.21-13.65-.39-1.04-4.97-1.18-5.11,0-.59,4.93.57,10.68,1.3,15.6h4.79c-1.59-5.71-1.86-11.73-2.67-17.59-.92-6.69-2.22-13.27-2.44-20.03h-5.55c.93,6.23.65,12.58,1.6,18.85.48,3.16.98,6.32,1.41,9.49.26,1.9.07,4.37,1.32,5.92.59.73,5.69.9,5.49-.22-.32-1.77-1.55-2.98-1.8-4.81l-3.08.24.44.27c.39.25,3.18.22,2.79-.35l-.21-.3c-.41-.59-2.94-.57-3.25.13-.69,1.59-.56,3.11-.48,4.81l5.49-.22c-1.19-1.83-1.23-5.37-1.59-7.42-.54-3.08-.99-6.18-1.4-9.28-.76-5.7-.38-11.46-1.17-17.12-.17-1.24-5.58-1.13-5.55,0,.15,6.78,1.87,13.36,2.9,20.03.91,5.86,1.28,11.89,2.97,17.59.3,1.01,4.68,1.07,4.79,0,.53-5.34-.94-10.27-.98-15.6l-5.02.2c2.02,3.94,2.5,9.14,3.19,13.45.11.68,3.05.61,3.03,0-.13-5.65-2.02-12.03-1.05-17.59l-3.81.15c1.32,2.73,1.2,5.74,1.42,8.69.28,3.63,1.17,7.45.37,11.03-.25,1.1,7.02,1.84,7.16,0,.88-12.15-1.43-24.89-3.03-36.91h-9.82c2.64,9.14,4.33,18.92,4.48,28.46.02,1.68,7.94,1.71,7.97,0h0Z"/>
      <path class="cls-1" d="m.06,184.75c.08,0,.08-.04,0-.04s-.08.04,0,.04H.06Z"/>
      <path class="cls-1" d="m7.59,193.68c.08,0,.08-.04,0-.04s-.08.04,0,.04h0Z"/>
      <path class="cls-1" d="m195.52,207.89c-2.76-8.97-4.53-18.11-7.44-27.06-.13-.41-1.79-.27-1.73,0,2.04,9.02,3.84,18.2,6.51,27.06.21.69,2.76.34,2.66,0h0Z"/>
      <path class="cls-1" d="m197.06,212.35c-1.5-6-2.36-12.13-3.85-18.14-1.34-5.4-2.67-11.42-6.63-15.53-.77-.8-4.44-.97-4.96.2-2.15,4.9,1.73,11.32,2.98,16.14,1.52,5.85,2.43,11.59,4.48,17.33.68,1.91,8.27,1.21,7.97,0h0Z"/>
      <path class="cls-1" d="m190.95,190.87c-1-5.73-2.54-11.26-3.87-16.91-1.16-4.93-1.81-9.81-4.05-14.39-.14-.29-1.73-.26-1.7.07.54,5.26,3.01,10.15,4.51,15.22s2.83,10.58,3.78,16.02c.06.32,1.37.22,1.33,0h0Z"/>
      <path class="cls-1" d="m194.71,186.13c-1.04-6.32-2.83-12.09-4.66-18.2-.82-2.75-1.41-5.55-2.21-8.3s-2.45-5.25-4-7.74c-.56-.9-5.43-1.04-5.61.22-.8,5.76,1.24,11.27,3.05,16.69,1.95,5.85,4.43,11.45,6.26,17.34.52,1.65,7.38,1.26,7.17,0h0Z"/>
      <path class="cls-1" d="m189.36,179.43c-1.71-5.6-3.48-11.35-4.52-17.12-.93-5.16-.96-9.74-4.67-13.76-.56-.61-4.96-.99-4.96.2,0,4.87,3.05,10.72,4.47,15.4,1.61,5.33,3.69,10.37,6.02,15.43.33.73,3.81.37,3.65-.15h0Z"/>
      <path class="cls-1" d="m189.59,185.29c-2.07-6.55-2.71-13.49-4.2-20.19-1.62-7.29-4.4-13.18-8.49-19.39-.62-.94-6.27-1.13-6.26.25.13,14.08,9.53,26.28,13.64,39.33.44,1.38,5.52.67,5.31,0h0Z"/>
      <path class="cls-1" d="m181.05,154.05c-2.28-6.32-4.45-13.04-7.92-18.81-.3-.49-3.2-.5-3.13.12.79,6.92,4.39,12.63,7.27,18.84.37.79,3.95.31,3.78-.15h0Z"/>
      <path class="cls-1" d="m183.92,151.54c-.53-2.75-.94-5.68-2.01-8.27-1.24-3.02-3.09-5.71-4.9-8.39-.53-.79-5.43-.92-5.35.21.46,6.12,3.57,10.95,6.02,16.46.59,1.32,6.46,1.13,6.24,0h0Z"/>
      <path class="cls-1" d="m185.94,148.2c-2.91-8.06-5.68-16.17-10.41-23.38-.57-.86-5.75-1.03-5.74.23.05,8.66,3.67,15.35,6.99,23.15.97,2.28,9.56,1.1,9.16,0h0Z"/>
      <path class="cls-1" d="m175.69,137.88c-1.15-3.66-2.63-7.13-4.53-10.47-.33-.58-3.64-.64-3.65.15-.06,3.53.98,6.9,1.67,10.32.36,1.77,6.76.81,6.51,0h0Z"/>
      <path class="cls-1" d="m172.94,129.79c-1.71-4.94-3.54-9.83-5.21-14.78-.09-.27-1.23-.21-1.2,0,.86,5.08,2.75,9.88,4.28,14.78.18.57,2.21.25,2.12,0h0Z"/>
      <path class="cls-1" d="m173.16,125.6c-1.33-4.26-2.96-8.29-4.73-12.38-1.6-3.68-2.67-7.65-4.53-11.2-.31-.6-3.67-.62-3.65.15.16,7.8,5.59,16.43,8.66,23.43.44,1,4.43.59,4.25,0h0Z"/>
      <path class="cls-1" d="m175.78,127.55c-2.14-8.35-4.81-17.18-10.4-23.91-.54-.64-5.03-.92-4.96.2.24,3.9.56,7.62,2.1,11.24,1.75,4.12,3.5,8.21,4.89,12.47.67,2.05,8.68,1.24,8.37,0h0Z"/>
      <path class="cls-1" d="m166.22,105.04c-2.94-6.36-6.26-12.61-9.5-18.82-1.69-3.25-3.95-6.15-5.66-9.4-1.52-2.9-2.84-7.4-5.51-9.39-.61-.46-3.46-.85-3.78.15-.97,3,1.08,5.66,2.36,8.21,1.77,3.53,3.7,6.84,5.61,10.28,3.65,6.57,7.91,12.8,11.6,19.36.56.99,5.33.6,4.87-.39h0Z"/>
      <path class="cls-1" d="m143.63,68.61c1.7,3.43,3.3,6.92,4.94,10.38s2.7,6.18,5.63,8.57c.47.38,4.46.65,4.17-.17-2.34-6.76-6.49-13.02-10.14-19.15-.56-.94-5.06-.53-4.61.37h0Z"/>
      <path class="cls-1" d="m167.15,85.26c2.9,11.56,4.45,23.54,7.89,34.95.07.23,1.07.22,1.06,0-.12-6.01-.69-11.25-2.35-17.05s-3.11-11.99-4.87-17.9c-.13-.43-1.79-.26-1.73,0h0Z"/>
      <path class="cls-1" d="m176.2,125.26c.06,0,.06-.03,0-.03s-.06.03,0,.03h0Z"/>
      <path class="cls-1" d="m178.99,136.59c-.7-8.53-2.54-16.65-4.41-24.98-.9-4.02-1.43-8.07-2.15-12.12-.77-4.27-2.54-7.92-3.84-12.03-.16-.5-2.35-.53-2.39,0-.58,7.78,1.54,16.56,3.34,24.14,1.99,8.37,4.72,16.53,6.4,24.98.14.7,3.1.58,3.05,0h0Z"/>
      <path class="cls-1" d="m165.3,79.91c1.26,7.81,3.45,15.34,5.4,22.99s2.82,15.55,6.13,22.74c.16.34,2,.29,1.96-.08-.99-7.8-1.07-15.78-2.58-23.5-1.46-7.46-4.11-14.64-5.46-22.15-.24-1.32-5.6-.93-5.45,0h0Z"/>
      <path class="cls-1" d="m217.74,209.96c1.86-8.02,3.15-16.13,5.24-24.1.92-3.52,2.09-6.94,2.48-10.57.42-3.93,1.73-6.83,2.83-10.64.21-.73-4.67-1.24-5.17,0-2.86,7.15-5.98,14.03-8.25,21.43-1.07,3.5-2.17,7.04-2.99,10.61-.67,2.89-.42,6.56-1.47,9.29h5.06c1.45-4.84,3.77-9.2,4.32-14.32.08-.7-3.15-.7-3.45,0-2.01,4.62-2.54,10.16-5.84,14.12-.61.74,4.04,1.04,4.88.39,2.38-1.84,2.21-4.92,2.72-7.71.71-3.9,1.6-7.71,2.74-11.51,2.26-7.51,5.14-14.83,7.44-22.31h-5.17c-3.1,15.33-7.82,30.25-12.29,45.32-.26.87,6.47,1.86,6.91,0h0Z"/>
      <path class="cls-1" d="m226.81,163.88c.46-3.15,1-6.28.8-9.47-.04-.56-2.55-.58-2.66,0-.57,3.16-1.1,6.32-1.73,9.47-.11.56,3.45.91,3.59,0h0Z"/>
      <path class="cls-1" d="m224.97,160.09c-.38,1.24-.59,2.49-.63,3.79,0,.02.1.02.1,0,.05-1.29.26-2.55.63-3.79,0-.01-.09-.03-.1,0h0Z"/>
      <path class="cls-1" d="m209.92,510.24c-.46,3.06-.32,5.96-.32,9.03,0,.46,1.88.4,2.09.08,1.71-2.59,1.61-6.17,2.21-9.12.13-.62-3.83-1.02-3.98,0h0Z"/>
      <path class="cls-1" d="m211.5,522.07c1.07-4.95,1.83-9.93,2.36-14.95.06-.53-2.44-.56-2.66,0-1.91,4.83-1.89,9.86-2.62,14.95-.07.51,2.77.7,2.92,0h0Z"/>
      <path class="cls-1" d="m212.46,505.56c-.44,3.13-.99,6.24-1.56,9.34,0,.02.13.03.13,0,.57-3.11,1.12-6.22,1.56-9.34,0-.02-.13-.03-.13,0h0Z"/>
      <path class="cls-1" d="m212.94,515.84c.53-3.8,1.32-7.68,1.05-11.52-.07-1.01-4.3-.97-4.7-.19-1.87,3.66-2.48,7.73-3.39,11.71-.24,1.04,6.78,1.83,7.04,0h0Z"/>
      <path class="cls-1" d="m227.56,508.37c.32-4.05.3-8.07.39-12.12.08-3.59.66-7.37.4-10.93-.03-.38-1.62-.37-1.73,0-2.11,7.36-1.98,15.52-3.57,23.05-.15.71,4.43,1.15,4.52,0h0Z"/>
      <path class="cls-1" d="m233.84,496.22c.54-4.35.74-8.72,1.18-13.08,0-.02-.13-.03-.13,0-.48,4.36-.73,8.74-1.31,13.08,0,.05.26.06.27,0h0Z"/>
      <path class="cls-1" d="m234.6,480.02c-.41,8.26-.57,16.72-1.53,24.92-.01.12.64.16.66,0,.6-3.43,1.18-7.14,1.35-10.62.23-4.77-.62-9.51-.38-14.3,0-.02-.1-.02-.1,0h0Z"/>
      <path class="cls-1" d="m234.31,504.01c.9-4.4.83-8.64.44-13.08-.03-.31-1.44-.32-1.46,0-.33,4.37.26,8.72-.18,13.08-.02.22,1.14.28,1.2,0h0Z"/>
      <path class="cls-1" d="m228.81,481.27c.24,4.59.88,9.17,1.07,13.75.03.68.48,5.82.15,6.01l2.02.16c-.62-2.38.27-5.38.17-7.93-.11-2.86-.72-5.47-1.31-8.26-.09-.4-1.83-.4-1.86,0-.17,2.83.07,5.45.36,8.26.25,2.4.87,5.58.48,7.93-.04.23.7.3.79.31,2.58.13,3.04-1.66,3.16-3.97.28-5.41.08-10.84.42-16.26.07-1.12-5.51-1.17-5.45,0h0Z"/>
      <path class="cls-1" d="m236.22,490.3c-.5-3.03-.48-6.42-1.4-9.34-.11-.34-1.54-.36-1.59,0-.47,2.96.16,6.38.47,9.34.06.61,2.6.43,2.52,0h0Z"/>
      <path class="cls-1" d="m237.35,485.63c-.1,1.56-.24,3.18-.1,4.74.13,1.4.8,2.61,1.03,3.98.05.32,1.39.32,1.46,0,.63-2.8.46-5.86.93-8.72.09-.57-3.27-.82-3.32,0h0Z"/>
      <path class="cls-1" d="m241.56,502.14c-.78-3.83-2.14-7.47-2.76-11.34-.49-3.07-1.88-6.1-1.91-9.22,0-.03-.13-.03-.13,0,.03,3.11,1.42,6.16,1.91,9.22.62,3.87,1.98,7.51,2.76,11.34,0,.03.14.02.13,0h0Z"/>
      <path class="cls-1" d="m243.88,512.1c-3.1-9.73-4.05-19.74-6.71-29.55-.04-.15-.69-.16-.7,0-.83,7.69,1.8,19.16,8.01,24.32.19.16,1.68.19,1.57-.06-1.82-4.02-4.22-7.96-5.55-12.14-.7-2.19-1.1-4.47-1.64-6.7-.19-.76-.3-1.69-.64-2.39-.51-1.05-1.23-2.97-1.41-1.02-.36,3.97,1.66,9.39,2.42,13.31.95,4.91,2.61,9.55,4.28,14.24.04.1.41.05.4,0h0Z"/>
      <path class="cls-1" d="m246,505.81c-2.35-4.71-4.14-9.45-5.77-14.44-1.04-3.18-1.53-6.91-3.22-9.81-.05-.08-.41-.02-.39.02,1.62,3.61,2.12,8.18,3.24,12.02,1.25,4.27,2.74,8.29,4.6,12.34.15.34,1.69.17,1.54-.12h0Z"/>
      <path class="cls-1" d="m262.73,504.16c-2.31-3.49-4.95-6.75-7.26-10.24s-3.95-7.4-6.58-10.46c-.15-.17-1.3-.26-1.32.05-.15,3.47,2.15,6.8,3.7,9.76,2.1,4.03,4.23,8.06,6.41,12.06.2.37,2.04.21,1.96-.08-1.08-3.5-2.47-7.06-4.24-10.26-1.87-3.38-6.1-7.55-6.47-11.48l-1.32.05c2.01,3.27,2.26,7.32,4.26,10.65,2.14,3.55,4.81,6.77,7.04,10.26.54.85,4.24.28,3.84-.31h0Z"/>
      <path class="cls-1" d="m261.09,513.87c-2.87-5.16-5.98-10.11-8.48-15.47-2-4.29-3.86-9.34-7.16-12.84-.26-.27-1.86-.17-1.66.13,2.62,4.07,2.82,9.39,4.86,13.72,2.48,5.28,6.72,9.87,10.02,14.65.33.48,2.68.26,2.43-.2h0Z"/>
      <path class="cls-1" d="m240.88,485.01c1.21,3.87,2.91,7.56,4.17,11.4,1.08,3.31,1.9,6.33,3.41,9.51.1.2,1.09.12,1.04-.04-1.88-6.85-3.65-13.87-4.9-20.87-.18-1.01-3.87-.47-3.72,0h0Z"/>
      <path class="cls-1" d="m252.4,511.93c-4.62-9.19-9.98-18.42-13.71-27.99h-1.32c1.21,3.08,1.09,6.41,2.47,9.41,1.51,3.29,3.87,6.25,5.57,9.47.16.3,1.64.15,1.57-.06-2.17-6.6-5.4-12.61-8.31-18.87-.11-.23-1.34-.18-1.3.05,1.51,9.82,6.73,19.11,10.6,28.17.51,1.2,4.83.61,4.43-.18h0Z"/>
      <path class="cls-1" d="m248.04,505.89c.08,0,.08-.04,0-.04s-.08.04,0,.04h0Z"/>
      <path class="cls-1" d="m252.61,510.48c-1.87-3.43-3.67-6.9-5.43-10.39-1.63-3.23-3.79-6.17-5.28-9.48-.09-.19-.83-.1-.8,0,1.04,2.95,2.68,5.55,4.08,8.33,1.94,3.88,3.76,7.81,5.76,11.67.19.37,1.83.17,1.66-.13h0Z"/>
      <path class="cls-1" d="m243.85,492.21c.74,1.5,1.64,3.11,2.74,4.37.13.14,1.1.12,1.04-.04-.29-.79-.81-1.4-1.31-2.07-.56-.75-1.1-1.52-1.58-2.32-.11-.18-.98-.1-.9.07h0Z"/>
      <path class="cls-1" d="m268.33,502.44c-1.19-1.04-2.22-2.27-3.35-3.38-.96-.94-2.06-1.77-2.87-2.85-.02-.03-.14,0-.13.01.83,1.09,1.94,1.91,2.92,2.85,1.13,1.08,2.31,2.19,3.32,3.38.02.02.1,0,.1,0h0Z"/>
      <path class="cls-1" d="m260.72,496.61c2.24,2.81,4.93,5.49,7.93,7.49.24.16,1.34-.04,1.21-.15-1.24-1.04-2.23-2.34-3.39-3.48-1.31-1.28-2.56-2.59-3.7-4.03-.35-.43-2.26-.1-2.05.17h0Z"/>
      <path class="cls-1" d="m273.13,505.42c-3.55-3.35-6.12-7.4-9.93-10.52-.28-.23-1.88-.13-1.66.13,2.79,3.47,5.08,7.42,8.14,10.66.46.49,1.6.43,2.21.37.16-.02,1.68-.25,1.25-.65h0Z"/>
      <path class="cls-1" d="m264.98,496.86c.7.77,1.34,1.56,1.8,2.5.06.11.56.05.51-.04-.51-.94-1.19-1.72-1.93-2.49-.07-.07-.42-.01-.38.03h0Z"/>
      <path class="cls-1" d="m273.66,502.7c-3.2-2.76-5.84-6.06-8.86-9-.1-.09-.57-.02-.51.04,2.73,2.96,5.05,6.28,7.96,9.07.31.3,1.52-.02,1.41-.11h0Z"/>
      <path class="cls-1" d="m277.84,503.14c-2.8-2.71-5.32-5.74-8.5-8.02-.46-.33-4.37-.54-4.04.16,1.46,3.19,4.11,5.85,6.52,8.34.83.85,2.77.73,3.84.64.29-.02,2.91-.42,2.18-1.13h0Z"/>
      <path class="cls-1" d="m271.55,495.95c-1.8-2.52-3.55-5.05-5.57-7.4-.56-.65-5.08-.67-4.83.19.83,2.81,2.32,5.27,3.86,7.74.61.98,3.22.77,4.17.69.45-.04,3.01-.31,2.37-1.22h0Z"/>
      <path class="cls-1" d="m276.92,500.6c-3.65-4.25-7.36-8.16-11.69-11.72-.71-.58-5.07-.44-4.48.36,2.93,4.01,5.94,7.94,8.87,11.95.79,1.08,3.52.88,4.66.78.43-.04,3.45-.42,2.64-1.37h0Z"/>
      <path class="cls-1" d="m267.2,498.91c-2.05-3.67-4.05-7.37-6.2-10.98s-4.78-6.39-7.51-9.55c-.32-.37-2.42-.23-2.18.18,4.14,6.97,8.88,13.62,13.07,20.58.36.59,3.1.28,2.82-.23h0Z"/>
      <path class="cls-1" d="m218.35,423.96c-.85-4.69-1.91-9.33-2.75-14.02-.09-.52-2.34-.52-2.39,0-.44,4.76-.08,9.28.36,14.02.11,1.17,4.93.81,4.78,0h0Z"/>
      <path class="cls-1" d="m209.91,395.61c-.32,6.26.29,11.73,2.09,17.75.07.23,1.07.21,1.06,0-.33-5.92-.8-11.8-1.03-17.75-.02-.45-2.1-.46-2.12,0h0Z"/>
      <path class="cls-1" d="m213.63,412.74c-.14-7.18-1.36-14.06-2.11-21.18-.04-.38-1.71-.36-1.73,0-.23,7.08.55,14.1.38,21.18-.02.72,3.47.74,3.45,0h0Z"/>
      <path class="cls-1" d="m208.09,390.32c.18,5.6.81,10.82,2.49,16.2.19.6,2.72.5,2.66,0-.65-5.34-.64-10.82-.63-16.2,0-.96-4.55-.95-4.52,0h0Z"/>
      <path class="cls-1" d="m236.2,433.61c-.16-1.36-.23-2.73-.4-4.09-.19-1.48-.66-2.64-1.18-4-.09-.25-1.2-.26-1.2,0,.03,1.35.55,2.64.67,4s.14,2.73.24,4.09c.03.43,1.9.35,1.86,0h0Z"/>
      <path class="cls-1" d="m238.91,431.12c-1.13-4.78-3.06-8.97-5.53-13.18-.26-.45-2.59-.27-2.48.1,1.32,4.26,2.63,8.65,3.23,13.08.17,1.23,4.95.72,4.78,0h0Z"/>
      <path class="cls-1" d="m235.74,485.32c.8,4.97.96,10.04,2.02,14.95.09.41,1.87.38,1.86,0-.13-5.06-.35-9.92-1.09-14.95-.1-.68-2.87-.48-2.79,0h0Z"/>
      <path class="cls-1" d="m239.93,504.63c-.16-5.87-.58-11.72-1.98-17.44-.12-.5-2.27-.46-2.26,0,.21,5.8.43,11.63.52,17.44.01.8,3.74.78,3.72,0h0Z"/>
      <path class="cls-1" d="m234.1,482.51c-1.65,10.6-3.37,21.12-4.46,31.77-.01.12.64.16.66,0,1.95-10.69,5.27-21.1,7.38-31.77.11-.56-3.44-.91-3.59,0h0Z"/>
      <path class="cls-1" d="m230.23,516.15c1.45-7.21,1.96-14.5,1.05-21.8-.05-.43-1.94-.43-1.99,0-.86,7.29-.89,14.5-1.45,21.8-.03.45,2.28.55,2.39,0h0Z"/>
      <path class="cls-1" d="m221.84,480.33c.27,3.24,1.72,6.19,2.09,9.44s-.21,6.68-.72,10.01c-.87,5.75-2.62,11.27-3.6,16.99-.08.49,2.36.52,2.61.1,3.09-5.22,5.27-10.3,6.63-16.2.7-3.03,1.18-6.06,1.77-9.11.71-3.7,2.82-7.52,2.51-11.24-.21-2.58-11.47-2.18-11.29,0h0Z"/>
      <path class="cls-1" d="m217.56,524.56c1.14-5.35,1.65-10.94,3.11-16.2,0-.01-.09-.03-.1,0-1.46,5.26-1.98,10.85-3.11,16.2,0,.02.09.03.1,0h0Z"/>
      <path class="cls-1" d="m220.34,505.56c-1.09,4.4-1.7,8.89-2.74,13.3-.72,3.07-.98,7.76-2.76,10.48l1.21.05c1.64-4.59,4.04-8.19,4.06-13.24,0-.3-1.41-.33-1.46,0-.75,4.56-2.77,8.77-3.83,13.24-.05.2,1.1.26,1.21.05,1.28-2.45,1.64-6.32,2.36-8.98,1.35-4.96,2.11-9.89,3.15-14.9.04-.19-1.12-.3-1.2,0h0Z"/>
      <path class="cls-1" d="m219.23,508.99c-.04,1.85-.07,3.7-.22,5.55-.12,1.5-.09,3.37-.88,4.7-.07.12.54.15.64.05.95-.95.9-2.77,1.03-4.01.22-2.09.29-4.19.36-6.29,0-.19-.93-.2-.93,0h0Z"/>
      <path class="cls-1" d="m219.07,507.76c.08,0,.08-.04,0-.04s-.08.04,0,.04h0Z"/>
      <path class="cls-1" d="m217.59,512.42c-.46,1.54-.54,3.27-1.4,4.68l1.08.04c-.01-1.87.09-3.78.14-5.65,0-.08-.39-.09-.4,0-.2,1.86-.12,3.91-.84,5.65-.08.19.95.15,1.08.04,1.38-1.16,1.49-3.16,2.07-4.76.07-.18-1.58-.48-1.73,0h0Z"/>
      <path class="cls-1" d="m216.11,509.3c-.78,5.8-2.19,10.87-4.35,16.3-.73,1.84-1.16,3.1.04.56.56-1.17.94-2.59,1.28-3.83.84-3.04,1.25-6.18,1.67-9.3.03-.24-1.24-.31-1.33,0-1.45,5.08-1.93,10.3-3.09,15.43-.03.13.59.12.66.03,1.69-2.17,2.54-5.35,3.51-7.89,1.4-3.65,1.98-7.45,2.54-11.3.02-.16-.9-.23-.93,0h0Z"/>
      <path class="cls-1" d="m214.31,503.69c-.46,2.11-.54,4.23-.71,6.38s-.63,4.2-.5,6.33c0,.1.27.12.33.13,3.43.31,2.42-6.44,2.48-8.47,0-.11-.52-.12-.53,0-.12,1.85-.21,3.7-.46,5.54-.03.2-.27,2.2-.59,2.26-.62.12-.26-1.86-.25-1.97.29-3.36.35-6.88,1.04-10.19.03-.12-.75-.2-.8,0h0Z"/>
      <path class="cls-1" d="m218.12,514.6c.63-3.15,1.61-7.13-.11-10.05-.33-.55-3.57-.57-3.51.14.21,2.33.24,4.16-.43,6.43-.62,2.09-2.08,4.04-2.03,6.24h4.71c-.14-1.8-.27-4.23-.98-5.87-.2-.47-1.93-.48-2.12,0-.79,1.93-1.45,3.78-1.6,5.87-.07.9,4.57,1.09,4.71,0,.28-2.13-.4-4.11-.07-6.24s.74-4.25,1.39-6.43l-3.51-.14c-.78,1.37-1.04,2.77-1.5,4.27-.59,1.9-1.39,3.7-2.25,5.49-.69,1.43,6.9,2.31,7.3.29h0Z"/>
      <path class="cls-1" d="m214.64,515.22l.49-1.87c.06-.22-1.32-.34-1.46,0l-.76,1.87c-.06.16,1.59.5,1.73,0h0Z"/>
      <path class="cls-1" d="m220.97,516.15c.05-1.05.09-2.1.11-3.15,0-.46.09-1.02,0-1.48-.11-.56-.51-1.14-.76-1.64-.5-.98-3.52-.98-4.35-.97-1.28.02-3.39-.03-4.35.97-.51.53-.97,1-1.34,1.63-.23.4-.42.83-.63,1.24-.51.97-1.04,1.93-1.57,2.89-1.18,2.1,4.53,2.37,5.47,2.41,1.64.06,3.26-.02,4.86-.38.75-.17,2.54-.47,2.59-1.51h0Z"/>
      <path class="cls-1" d="m216.64,514.28c.29-1.55.54-3.11.74-4.67.04-.28-1.51-.38-1.59,0-.33,1.57-.71,3.13-1.13,4.67-.07.27,1.89.53,1.99,0h0Z"/>
      <path class="cls-1" d="m229.91,500.27l-.27,1.24c-.01.05.23.05.26.01.82-1.03.89-2.48,1.03-3.74.01-.13-.66-.15-.66,0-.01,1.22.08,2.66-.62,3.72h.26c.05-.4.09-.82.14-1.23,0-.02-.13-.03-.13,0h0Z"/>
      <path class="cls-1" d="m233.14,500.58v-2.18s-.1-.02-.1,0v2.18s.1.02.1,0h0Z"/>
      <path class="cls-1" d="m237.03,502.45c-.13-.72-.25-1.45-.33-2.18s-.4-1.46-.64-2.18c-.27-.81-1.98-.79-2.66-.78s-2.4-.05-2.66.78c-.22.72-.49,1.43-.47,2.18s.06,1.45.12,2.18c.08.99,2.67.98,3.32.97.42,0,3.48-.07,3.32-.97h0Z"/>
      <path class="cls-1" d="m233.81,498.11l.46,5.69c.06.68,3.13.69,3.19,0l.46-5.69c.07-.85-4.19-.87-4.12,0h0Z"/>
      <path class="cls-1" d="m226.81,493.56c.71,3.84,1.15,7.7,1.37,11.6s-.52,7.5,2.47,10.24c1.13,1.04,4.76,1.03,5.89,0,2.96-2.71,2.34-6.44,2.32-10.24s-.25-7.75-.76-11.6c-.37-2.79-11.63-1.88-11.29,0h0Z"/>
    </g>
  </g>
</svg>