<?xml version="1.0" encoding="UTF-8"?>
<svg id="Layer_2" data-name="Layer 2" xmlns="http://www.w3.org/2000/svg" viewBox="0 0 1450 350">
  <defs>
    <style>
      .cls-1 {
        fill: #dbf4ff;
        opacity: .55;
      }
    </style>
  </defs>
  <g id="Layer_20" data-name="Layer 20">
    <path class="cls-1" d="m497.5,104.2s-82.53-44.01-158.27-4.22c-45.41,23.86-106.07,68.84-223.28,55.68-28.05-3.15-73.07-2.94-105.99,25.31,0,0-40.62,26.13,42.11,36.06,53.43,6.41,141.57,39.16,217.98-.21,76.42-39.37,29.9,18.45,43.83,12.63,13.93-5.81,32.13-27.41,187.57,9.06,30.14,7.07,116.2,43.95,177.18,35.21,71.11-10.2,60.79,22.21,131.71,11.78,29.11-4.28,38.67,21.58,65.97,25.25,31.27,4.2,136.05,66.05,221.27,25.58,82.45-39.15,335.72-1.47,351.92-69.95,9.69-40.95-127.9-61.36-181.67-91.45-37.28-20.86-102.47-60.69-149.88-58.74-111.09,4.57-155.05-114.56-254.31-102.15-82.23,10.28-230.92-77.78-366.15,90.15Z"/>
  </g>
</svg>