<?xml version="1.0" encoding="UTF-8"?>
<svg id="Layer_2" data-name="Layer 2" xmlns="http://www.w3.org/2000/svg" viewBox="0 0 2465.88 780.32">
  <defs>
    <style>
      .cls-1 {
        fill: #f8ffd4;
      }
    </style>
  </defs>
  <g id="Layer_3" data-name="Layer 3">
    <path class="cls-1" d="m52.39,413.6L394.3,0l121.32,181.98,270.22,71.69,248.82,92.43,658.34-53.82,325.36-93.75s293.85,58.31,329.7,69.34c35.85,11.03,117.83,369.04,117.83,369.04l-475.72-149.01-387.88-50.6-63.57-24.88-48.7,10.1-63.32,56.79-114.29,39.24-112.59-67.79-229.96,79.89-189.92,28.93s-37.87-8.6-98.53-19.63c-60.66-11.03-171.28,50.41-231.95,61.44-60.66,11.03-170.95,76.91-170.95,76.91L0,780.32l52.39-366.72Z"/>
  </g>
</svg>