<?xml version="1.0" encoding="UTF-8"?>
<svg id="Layer_2" data-name="Layer 2" xmlns="http://www.w3.org/2000/svg" viewBox="0 0 148.78 157.89">
  <defs>
    <style>
      .cls-1 {
        fill: #ff1a00;
      }

      .cls-2 {
        fill: #663f3b;
      }

      .cls-3 {
        fill: #2b1512;
      }

      .cls-4 {
        fill: #63302b;
      }
    </style>
  </defs>
  <g id="Layer_16" data-name="Layer 16">
    <g>
      <path class="cls-3" d="m10.68,98.09c-3.22,1.17,54.9,41.41,54.9,41.41l-9.66,13.11S-3.83,119.51.19,116.25c4.02-3.26,10.48-18.16,10.48-18.16Z"/>
      <polygon class="cls-1" points="27.44 135.66 3.08 91.56 17.36 92.82 14.84 78.54 19.46 47.04 43.4 66.78 45.92 47.04 60.62 0 73.64 33.18 86.66 86.52 120.26 35.7 123.2 65.94 113.96 114.24 130.76 112.14 102.96 137.38 51.08 137.68 27.44 135.66"/>
      <path class="cls-2" d="m9.48,123.2c-2.59,2.24,66.09,18.98,66.09,18.98l-4.31,15.7S3.61,148.4,6.2,143.91c2.59-4.49,3.28-20.71,3.28-20.71Z"/>
      <path class="cls-4" d="m148.78,130.09c.72-3.35-64.21,24.62-64.21,24.62l-6.01-15.14s59.74-33.13,60.37-27.99c.63,5.14,9.84,18.51,9.84,18.51Z"/>
      <path class="cls-3" d="m101.65,150.89c1.97-2.8-68.72-2.43-68.72-2.43l.39-16.28s67.93-7.16,66.51-2.18c-1.43,4.98,1.83,20.89,1.83,20.89Z"/>
    </g>
  </g>
</svg>