<?xml version="1.0" encoding="UTF-8"?>
<svg id="Layer_2" data-name="Layer 2" xmlns="http://www.w3.org/2000/svg" viewBox="0 0 3514.15 3029.71">
  <defs>
    <style>
      .cls-1 {
        fill: #3b090c;
      }
    </style>
  </defs>
  <g id="Layer_10" data-name="Layer 10">
    <path class="cls-1" d="m1324.51,1999.27l107.38,20.75,199.56-118.86,165.92,4.78,116.96-28.23,69,74.97,61.18-81.83,95.26-7.31s185.92-25.56,193.87-9.68c7.94,15.89,115.01,6.13,115.01,6.13,0,0,197.11-111.81,252.71-101.22,55.6,10.59,239.45-73.56,239.45-73.56l-186.08-147.15,89.33-214.96-1.45-446.82,97.11-308.25L3235.58,0l135.6,1284.86,142.97,349.49-29.12,455.39s-145.62,451.68-153.56,465.98c-7.94,14.3-270.06,119.14-349.49,164.15-79.43,45.01-484.52,111.2-484.52,111.2,0,0-390.49,202.21-430.38,198.58-39.89-3.63-728.92,0-728.92,0,0,0-572.98-58.02-689.03-145.06-116.05-87.04-478.69-391.66-478.69-391.66l-130.55-380.78L0,1495.66,499.35,226.63l25.64,827.89,82.08,166.8-39.71,259.47-39.71,278,124.44,243.58,118.55-227.33,159.14,156.09,144.91,18.79,112.77,37.6,137.07,11.76Z"/>
  </g>
</svg>